<svg width="18" height="16" viewBox="0 0 18 16" fill="none" xmlns="http://www.w3.org/2000/svg">
<path d="M12.5778 1C12.4066 0.999788 12.2357 1.00976 12.0658 1.02987C10.2561 1.24683 9.40163 2.23414 9.00001 3.0831C8.59679 2.23414 7.74395 1.24683 5.93267 1.03145C5.78821 1.01415 5.64295 1.00418 5.49745 1.00158H5.42224C0.959634 1.00158 -3.08376 7.86716 8.96161 14.9843C8.97313 14.9921 8.98622 14.9975 9.00001 15C9.01101 14.9912 9.02434 14.9858 9.03841 14.9843C21.0822 7.86558 17.042 1.00158 12.5778 1ZM9.00001 14.085C6.09907 12.3242 4.03978 10.4895 2.85572 8.62021C1.89568 7.11252 1.58526 5.64728 1.94208 4.38484C2.15548 3.63866 2.61072 2.98122 3.23877 2.51223C3.86682 2.04325 4.6334 1.78831 5.42224 1.78608H5.47985C5.59754 1.78857 5.71504 1.79697 5.83186 1.81123C7.01272 1.95273 7.83195 2.49197 8.27038 3.41483L9.00001 4.94453L9.72484 3.41483C10.1617 2.49197 10.9825 1.95273 12.1634 1.81123C12.3014 1.79463 12.4403 1.78623 12.5794 1.78608C13.3692 1.78923 14.1364 2.04569 14.7642 2.51647C15.3921 2.98725 15.8464 3.6466 16.0579 4.39428C16.4148 5.652 16.0979 7.12038 15.1427 8.62965C13.9602 10.4895 11.8993 12.3242 9.00001 14.085Z" fill="#EE6409" stroke="#EE6409" stroke-width="0.5"/>
</svg>
