<svg width="20" height="20" viewBox="0 0 20 20" fill="none" xmlns="http://www.w3.org/2000/svg">
<path d="M10.0004 2.12962C12.5637 2.12962 12.8673 2.13942 13.8796 2.1856C14.8156 2.22828 15.3239 2.38467 15.6622 2.51614C16.1103 2.69029 16.4301 2.89832 16.766 3.23423C17.102 3.57019 17.31 3.88998 17.4841 4.33808C17.6156 4.67636 17.772 5.18467 17.8147 6.12066C17.8609 7.13294 17.8707 7.43657 17.8707 9.99985C17.8707 12.5632 17.8609 12.8668 17.8147 13.8791C17.772 14.8151 17.6156 15.3234 17.4841 15.6617C17.31 16.1098 17.102 16.4296 16.766 16.7655C16.4301 17.1014 16.1103 17.3094 15.6622 17.4836C15.3239 17.6151 14.8156 17.7715 13.8796 17.8141C12.8675 17.8603 12.5639 17.8701 10.0004 17.8701C7.4369 17.8701 7.13333 17.8603 6.12117 17.8141C5.18518 17.7715 4.67686 17.6151 4.33859 17.4836C3.89048 17.3094 3.57069 17.1014 3.23477 16.7655C2.89885 16.4296 2.69079 16.1098 2.51664 15.6617C2.38517 15.3234 2.22878 14.8151 2.1861 13.8791C2.13991 12.8668 2.13012 12.5632 2.13012 9.99985C2.13012 7.43657 2.13991 7.13294 2.1861 6.12066C2.22878 5.18467 2.38517 4.67636 2.51664 4.33808C2.69079 3.88998 2.89882 3.57019 3.23477 3.23427C3.57069 2.89832 3.89048 2.69029 4.33859 2.51614C4.67686 2.38467 5.18518 2.22828 6.12117 2.1856C7.13345 2.13942 7.43709 2.12962 10.0004 2.12962ZM10.0004 0.399902C7.39319 0.399902 7.06626 0.410953 6.04232 0.457673C5.02051 0.504278 4.32266 0.666576 3.71203 0.903869C3.08074 1.1492 2.54537 1.47746 2.01164 2.01115C1.47795 2.54488 1.14969 3.08024 0.904397 3.71153C0.667065 4.32215 0.504766 5.02001 0.458161 6.04181C0.411442 7.06575 0.400391 7.39267 0.400391 9.99985C0.400391 12.6071 0.411442 12.934 0.458161 13.9579C0.504766 14.9797 0.667065 15.6776 0.904397 16.2882C1.14969 16.9195 1.47795 17.4549 2.01164 17.9886C2.54537 18.5223 3.08074 18.8505 3.71203 19.0958C4.32266 19.3332 5.02051 19.4955 6.04232 19.5421C7.06626 19.5888 7.39319 19.5998 10.0004 19.5998C12.6076 19.5998 12.9345 19.5888 13.9585 19.5421C14.9803 19.4955 15.6781 19.3332 16.2888 19.0958C16.92 18.8505 17.4554 18.5223 17.9891 17.9886C18.5228 17.4549 18.8511 16.9195 19.0964 16.2882C19.3337 15.6776 19.496 14.9797 19.5426 13.9579C19.5893 12.934 19.6004 12.6071 19.6004 9.99985C19.6004 7.39267 19.5893 7.06575 19.5426 6.04181C19.496 5.02001 19.3337 4.32215 19.0964 3.71153C18.8511 3.08024 18.5228 2.54488 17.9891 2.01115C17.4554 1.47746 16.92 1.1492 16.2888 0.903869C15.6781 0.666576 14.9803 0.504278 13.9585 0.457673C12.9345 0.410953 12.6076 0.399902 10.0004 0.399902Z" fill="black"/>
<path d="M10.0049 5.07471C7.28229 5.07471 5.0752 7.2818 5.0752 10.0044C5.0752 12.727 7.28229 14.9341 10.0049 14.9341C12.7276 14.9341 14.9346 12.727 14.9346 10.0044C14.9346 7.2818 12.7276 5.07471 10.0049 5.07471ZM10.0049 13.2044C8.2376 13.2044 6.80492 11.7717 6.80492 10.0044C6.80492 8.2371 8.2376 6.80443 10.0049 6.80443C11.7722 6.80443 13.2049 8.2371 13.2049 10.0044C13.2049 11.7717 11.7722 13.2044 10.0049 13.2044Z" fill="black"/>
<path d="M16.2806 4.87712C16.2806 5.51332 15.7648 6.0291 15.1285 6.0291C14.4923 6.0291 13.9766 5.51332 13.9766 4.87712C13.9766 4.24088 14.4923 3.7251 15.1285 3.7251C15.7648 3.7251 16.2806 4.24088 16.2806 4.87712Z" fill="black"/>
</svg>
