<svg width="18" height="16" viewBox="0 0 18 16" fill="none" xmlns="http://www.w3.org/2000/svg">
<path fill-rule="evenodd" clip-rule="evenodd" d="M1.24236 6.83112C5.90669 4.79895 9.01697 3.45922 10.5732 2.81193C15.0166 0.963776 15.9399 0.642733 16.5417 0.632132C16.674 0.6298 16.97 0.662603 17.1617 0.818153C17.3235 0.949497 17.3681 1.12692 17.3894 1.25145C17.4107 1.37598 17.4372 1.65966 17.4161 1.88132C17.1753 4.41129 16.1335 10.5509 15.6034 13.3845C15.3791 14.5835 14.9375 14.9855 14.51 15.0249C13.5808 15.1104 12.8752 14.4108 11.9753 13.8209C10.5671 12.8978 9.77157 12.3232 8.40466 11.4224C6.82495 10.3814 7.84901 9.80926 8.74928 8.8742C8.98488 8.62949 13.0787 4.90582 13.158 4.56803C13.1679 4.52578 13.1771 4.3683 13.0835 4.28515C12.99 4.20199 12.8519 4.23043 12.7523 4.25304C12.611 4.2851 10.3614 5.77202 6.00336 8.71381C5.36481 9.15228 4.78643 9.36592 4.26822 9.35473C3.69694 9.34239 2.59802 9.03172 1.78109 8.76616C0.779086 8.44045 -0.017285 8.26825 0.0520611 7.71509C0.0881807 7.42697 0.484947 7.13232 1.24236 6.83112Z" fill="black"/>
</svg>
