<svg width="19" height="12" viewBox="0 0 19 12" fill="none" xmlns="http://www.w3.org/2000/svg">
<path fill-rule="evenodd" clip-rule="evenodd" d="M3.10352 0.200012H1.09056C0.515425 0.200012 0.400391 0.477537 0.400391 0.783473C0.400391 1.32997 1.08283 4.04031 3.57795 7.62496C5.24137 10.073 7.58495 11.4 9.71757 11.4C10.9971 11.4 11.1554 11.1053 11.1554 10.5976V8.74738C11.1554 8.15791 11.2766 8.04025 11.6818 8.04025C11.9804 8.04025 12.4922 8.19327 13.6864 9.37358C15.0513 10.7725 15.2763 11.4 16.044 11.4H18.057C18.6321 11.4 18.9197 11.1053 18.7538 10.5236C18.5723 9.94395 17.9206 9.10283 17.0559 8.10586C16.5867 7.53754 15.883 6.92555 15.6697 6.6195C15.3712 6.22608 15.4565 6.05119 15.6697 5.70151C15.6697 5.70151 18.1222 2.16054 18.3782 0.958429C18.5061 0.521216 18.3782 0.200012 17.7694 0.200012H15.7564C15.2446 0.200012 15.0087 0.477537 14.8807 0.783473C14.8807 0.783473 13.857 3.34085 12.4069 5.00204C11.9377 5.48287 11.7244 5.6359 11.4685 5.6359C11.3406 5.6359 11.1554 5.48288 11.1554 5.04578V0.958429C11.1554 0.433798 11.0068 0.200012 10.5802 0.200012H7.417C7.09718 0.200012 6.90479 0.443465 6.90479 0.674244C6.90479 1.17152 7.62986 1.28623 7.70461 2.68511V5.72338C7.70461 6.38949 7.5872 6.51027 7.33132 6.51027C6.64891 6.51027 4.98895 3.94146 4.00443 1.00211C3.81152 0.430791 3.61797 0.200012 3.10352 0.200012Z" fill="black"/>
</svg>
