<svg width="16" height="16" viewBox="0 0 16 16" fill="none" xmlns="http://www.w3.org/2000/svg">
<path d="M11.41 1.32825C11.2469 1.32804 11.0839 1.33755 10.922 1.35672C9.19715 1.5635 8.38278 2.50451 7.99999 3.31366C7.61568 2.50451 6.80284 1.5635 5.07649 1.35822C4.9388 1.34173 4.80035 1.33223 4.66167 1.32974H4.59C0.336649 1.32974 -3.51714 7.87338 7.96339 14.6568C7.97438 14.6643 7.98685 14.6694 7.99999 14.6718C8.01047 14.6634 8.02318 14.6582 8.0366 14.6568C19.5156 7.87189 15.6649 1.32974 11.41 1.32825ZM7.99999 13.7997C5.23509 12.1214 3.27236 10.3728 2.14383 8.59113C1.2288 7.15414 0.932941 5.7576 1.27303 4.55436C1.47641 3.84317 1.91031 3.21656 2.50891 2.76957C3.10751 2.32257 3.83815 2.07958 4.59 2.07746H4.6449C4.75708 2.07984 4.86906 2.08784 4.98041 2.10144C6.10589 2.23629 6.88671 2.75026 7.30457 3.62983L7.99999 5.0878L8.69084 3.62983C9.10718 2.75026 9.88952 2.23629 11.015 2.10144C11.1466 2.08561 11.279 2.07761 11.4115 2.07746C12.1643 2.08046 12.8955 2.3249 13.4939 2.7736C14.0924 3.22231 14.5253 3.85074 14.727 4.56335C15.067 5.7621 14.7651 7.16163 13.8546 8.60012C12.7276 10.3728 10.7634 12.1214 7.99999 13.7997Z" fill="#676F77" stroke="#676F77" stroke-width="0.5"/>
</svg>
