<svg width="16" height="14" viewBox="0 0 16 14" fill="none" xmlns="http://www.w3.org/2000/svg">
<path d="M11.4101 0.32825C11.247 0.328045 11.084 0.337552 10.9221 0.35672C9.19728 0.563504 8.3829 1.50452 8.00012 2.31367C7.61581 1.50452 6.80296 0.563504 5.07661 0.358219C4.93893 0.341733 4.80047 0.332231 4.6618 0.329749H4.59012C0.336771 0.329749 -3.51702 6.87339 7.96352 13.6568C7.9745 13.6643 7.98698 13.6694 8.00012 13.6718C8.0106 13.6634 8.0233 13.6582 8.03672 13.6568C19.5157 6.87189 15.665 0.329749 11.4101 0.32825ZM8.00012 12.7997C5.23521 11.1214 3.27248 9.37277 2.14395 7.59113C1.22892 6.15414 0.933063 4.75761 1.27315 3.55437C1.47654 2.84318 1.91044 2.21656 2.50903 1.76957C3.10763 1.32257 3.83827 1.07959 4.59012 1.07746H4.64502C4.7572 1.07984 4.86918 1.08784 4.98053 1.10144C6.10601 1.2363 6.88683 1.75026 7.3047 2.62984L8.00012 4.08781L8.69096 2.62984C9.1073 1.75026 9.88965 1.2363 11.0151 1.10144C11.1467 1.08562 11.2791 1.07761 11.4116 1.07746C12.1644 1.08047 12.8956 1.3249 13.494 1.7736C14.0925 2.22231 14.5254 2.85074 14.7271 3.56336C15.0672 4.7621 14.7652 6.16163 13.8548 7.60012C12.7278 9.37277 10.7635 11.1214 8.00012 12.7997Z" fill="#676F77" stroke="#676F77" stroke-width="0.4"/>
</svg>
