<svg width="34" height="41" viewBox="0 0 34 41" fill="none" xmlns="http://www.w3.org/2000/svg">
<path d="M14.375 6.21064H10.7813C10.2853 6.21064 9.88281 5.80814 9.88281 5.3122C9.88281 4.81626 10.2853 4.41376 10.7813 4.41376H14.375C14.8709 4.41376 15.2734 4.81626 15.2734 5.3122C15.2734 5.80814 14.8709 6.21064 14.375 6.21064Z" fill="#EE6409"/>
<path d="M21.5625 0.820068H3.59376C1.6118 0.820068 0 2.43187 0 4.41383V36.7576C0 38.7396 1.6118 40.3514 3.59376 40.3514H21.5625C23.5445 40.3514 25.1563 38.7396 25.1563 36.7576V31.367C25.1563 30.8702 24.7547 30.4686 24.2579 30.4686C23.761 30.4686 23.3594 30.8702 23.3594 31.367H1.79688V9.80446H23.3594C23.3594 10.3004 23.761 10.7029 24.2579 10.7029C24.7547 10.7029 25.1563 10.3004 25.1563 9.80446V4.41383C25.1563 2.43187 23.5445 0.820068 21.5625 0.820068ZM23.3594 33.1639V36.7576C23.3594 37.7486 22.5535 38.5545 21.5625 38.5545H3.59376C2.60278 38.5545 1.79688 37.7486 1.79688 36.7576V33.1639H23.3594ZM1.79688 8.00758V4.41383C1.79688 3.42285 2.60278 2.61695 3.59376 2.61695H21.5625C22.5535 2.61695 23.3594 3.42285 23.3594 4.41383V8.00758H1.79688Z" fill="#EE6409"/>
<path d="M24.2573 29.5701C19.3033 29.5701 15.2729 25.5397 15.2729 20.5857C15.2729 15.6317 19.3033 11.6013 24.2573 11.6013C29.2113 11.6013 33.2417 15.6317 33.2417 20.5857C33.2417 25.5397 29.2113 29.5701 24.2573 29.5701ZM24.2573 13.3982C20.2943 13.3982 17.0698 16.6227 17.0698 20.5857C17.0698 24.5487 20.2943 27.7732 24.2573 27.7732C28.2204 27.7732 31.4449 24.5487 31.4449 20.5857C31.4449 16.6227 28.2204 13.3982 24.2573 13.3982Z" fill="#EE6409"/>
<path d="M24.2573 25.9763C21.2844 25.9763 18.8667 23.5586 18.8667 20.5857C18.8667 18.8777 19.6519 17.3073 21.0212 16.2759C21.4183 15.9767 21.9807 16.0566 22.279 16.4528C22.5773 16.8491 22.4982 17.4124 22.102 17.7107C21.1883 18.3998 20.6636 19.4473 20.6636 20.5857C20.6636 22.5676 22.2754 24.1794 24.2573 24.1794C26.2393 24.1794 27.8511 22.5676 27.8511 20.5857C27.8511 19.4473 27.3273 18.4007 26.4136 17.7134C26.0174 17.4151 25.9383 16.8518 26.2366 16.4555C26.534 16.0602 27.0964 15.9785 27.4944 16.2785C28.843 17.2929 29.648 18.9029 29.648 20.5857C29.648 23.5586 27.2303 25.9763 24.2573 25.9763Z" fill="#EE6409"/>
<path d="M24.2573 21.4841C23.7605 21.4841 23.3589 21.0816 23.3589 20.5856V16.0934C23.3589 15.5975 23.7605 15.195 24.2573 15.195C24.7542 15.195 25.1558 15.5975 25.1558 16.0934V20.5856C25.1558 21.0816 24.7542 21.4841 24.2573 21.4841Z" fill="#EE6409"/>
</svg>
