<svg width="60" height="60" viewBox="0 0 60 60" fill="none" xmlns="http://www.w3.org/2000/svg">
<path d="M58.1775 12.3445H57.0693C57.0377 10.5913 55.6026 9.17449 53.8421 9.17449H51.16V4.98687C51.16 3.20663 49.7112 1.75781 47.931 1.75781H12.0689C10.2882 1.75781 8.83986 3.20663 8.83986 4.98687V9.17449H6.15782C4.39727 9.17449 2.96218 10.5913 2.9306 12.3445H1.82235C0.817564 12.3445 0 13.1621 0 14.1669V23.5547C0 24.5594 0.817564 25.377 1.82235 25.377H5.79711C6.8019 25.377 7.61946 24.5594 7.61946 23.5547V14.1669C7.61946 13.1621 6.8019 12.3445 5.79711 12.3445H4.69344C4.72457 11.5626 5.36864 10.9355 6.15782 10.9355H8.83986V43.6065C8.83986 44.0931 9.23399 44.4872 9.72059 44.4872C10.2067 44.4872 10.6013 44.0931 10.6013 43.6065V36.3441C11.0417 36.5702 11.5407 36.6984 12.0689 36.6984H47.931C48.4592 36.6984 48.9582 36.5702 49.3986 36.3441V50.5618C49.3986 51.3711 48.7403 52.0293 47.931 52.0293H12.0689C11.2596 52.0293 10.6013 51.3711 10.6013 50.5618V47.6769C10.6013 47.1908 10.2067 46.7962 9.72059 46.7962C9.23399 46.7962 8.83986 47.1908 8.83986 47.6769V50.5618C8.83986 52.342 10.2882 53.7904 12.0689 53.7904H12.9849V55.8375C12.9849 57.197 14.0909 58.3034 15.4509 58.3034H19.4096C20.7692 58.3034 21.8751 57.197 21.8751 55.8375V53.7904H38.1248V55.8375C38.1248 57.197 39.2307 58.3034 40.5903 58.3034H44.549C45.909 58.3034 47.015 57.197 47.015 55.8375V53.7904H47.931C49.7117 53.7904 51.16 52.342 51.16 50.5618V10.9355H53.8421C54.6312 10.9355 55.2753 11.5626 55.3069 12.3445H54.2032C53.1984 12.3445 52.3804 13.1621 52.3804 14.1669V23.5547C52.3804 24.5594 53.1984 25.377 54.2032 25.377H58.1775C59.1823 25.377 59.9999 24.5594 59.9999 23.5547V14.1669C59.9999 13.1621 59.1823 12.3445 58.1775 12.3445ZM5.79711 14.1055C5.83098 14.1055 5.85799 14.133 5.85799 14.1669V23.5547C5.85799 23.5885 5.83052 23.616 5.79711 23.616H1.82235C1.78848 23.616 1.76101 23.5885 1.76101 23.5547V14.1669C1.76101 14.133 1.78848 14.1055 1.82235 14.1055H5.79711ZM20.1141 55.8375C20.1141 56.2257 19.7978 56.542 19.4096 56.542H15.4509C15.0622 56.542 14.7464 56.2257 14.7464 55.8375V53.7904H20.1136V55.8375H20.1141ZM45.2535 55.8375C45.2535 56.2257 44.9377 56.542 44.549 56.542H40.5903C40.2021 56.542 39.8858 56.2257 39.8858 55.8375V53.7904H45.2535V55.8375ZM49.3986 12.2758H13.8354C13.3493 12.2758 12.9551 12.67 12.9551 13.1566C12.9551 13.6427 13.3493 14.0373 13.8354 14.0373H49.399V30.7191H43.5813C43.0947 30.7191 42.7006 31.1132 42.7006 31.5998C42.7006 32.0864 43.0947 32.4806 43.5813 32.4806H49.399V33.4698C49.399 34.2787 48.7407 34.9374 47.9314 34.9374H12.0689C11.2596 34.9374 10.6013 34.2787 10.6013 33.4698V32.4806H39.4715C39.9581 32.4806 40.3522 32.0864 40.3522 31.5998C40.3522 31.1132 39.9581 30.7191 39.4715 30.7191H30.8102L39.1186 23.7739C39.4907 23.4626 39.5402 22.9083 39.2289 22.5357C38.9176 22.1635 38.3633 22.1136 37.9911 22.4254L28.0696 30.7191H24.288L32.5959 23.7739C32.9685 23.4626 33.018 22.9083 32.7067 22.5361C32.3954 22.1635 31.8411 22.1136 31.4684 22.4254L21.5473 30.7196H10.6013V9.45784H49.3986V12.2758ZM49.3986 7.69637H10.6013V4.98687C10.6013 4.17755 11.2596 3.51928 12.0689 3.51928H47.931C48.7403 3.51928 49.3986 4.17755 49.3986 4.98687V7.69637ZM58.2389 23.5547C58.2389 23.5885 58.2114 23.616 58.1775 23.616H54.2032C54.1694 23.616 54.1419 23.5885 54.1419 23.5547V14.1669C54.1419 14.133 54.1694 14.1055 54.2032 14.1055H58.1775C58.2114 14.1055 58.2389 14.133 58.2389 14.1669V23.5547Z" fill="#A7A7A7"/>
<path d="M21.7515 45.9747C22.5608 45.9747 23.2191 45.316 23.2191 44.5067V43.0977C23.2191 41.1879 21.6655 39.6343 19.7552 39.6343H14.3541C13.5447 39.6343 12.8865 40.2925 12.8865 41.1019V42.5109C12.8865 44.4206 14.4401 45.9747 16.3504 45.9747H21.7515ZM14.6475 42.5109V41.3953H19.7552C20.6941 41.3953 21.4576 42.1593 21.4576 43.0977V44.2133H16.3504C15.4115 44.2133 14.6475 43.4493 14.6475 42.5109Z" fill="#232FE5"/>
<path d="M43.6495 45.9747C45.5598 45.9747 47.1134 44.4206 47.1134 42.5109V41.1019C47.1134 40.2925 46.4551 39.6343 45.6458 39.6343H40.2447C38.3349 39.6343 36.7808 41.1879 36.7808 43.0977V44.5067C36.7808 45.316 37.439 45.9747 38.2484 45.9747H43.6495ZM38.5418 43.0977C38.5418 42.1588 39.3058 41.3953 40.2447 41.3953H45.3519V42.5109C45.3519 43.4497 44.5884 44.2133 43.6495 44.2133H38.5418V43.0977Z" fill="#232FE5"/>
<path d="M33.8873 50.7099C34.5094 50.7099 35.0153 50.204 35.0153 49.5819V47.2588C35.0153 46.6367 34.5094 46.1309 33.8873 46.1309H26.1127C25.4906 46.1309 24.9847 46.6367 24.9847 47.2588V49.5819C24.9847 50.204 25.4906 50.7099 26.1127 50.7099H33.8873ZM26.7458 47.8919H33.2542V48.9489H26.7458V47.8919Z" fill="#232FE5"/>
</svg>
