<svg width="29" height="29" viewBox="0 0 29 29" fill="none" xmlns="http://www.w3.org/2000/svg">
<path d="M10.8747 25.3748C12.2094 25.3748 13.2913 24.2929 13.2913 22.9582C13.2913 21.6235 12.2094 20.5415 10.8747 20.5415C9.53999 20.5415 8.45801 21.6235 8.45801 22.9582C8.45801 24.2929 9.53999 25.3748 10.8747 25.3748Z" stroke="black" stroke-width="2" stroke-linecap="round" stroke-linejoin="round"/>
<path d="M20.5417 25.3748C21.8764 25.3748 22.9583 24.2929 22.9583 22.9582C22.9583 21.6235 21.8764 20.5415 20.5417 20.5415C19.207 20.5415 18.125 21.6235 18.125 22.9582C18.125 24.2929 19.207 25.3748 20.5417 25.3748Z" stroke="black" stroke-width="2" stroke-linecap="round" stroke-linejoin="round"/>
<path d="M3.625 3.625H6.04167L8.45833 18.125C8.719 18.8663 9.21347 19.5028 9.86728 19.9387C10.5211 20.3745 11.2988 20.5862 12.0833 20.5417H20.5417C21.3262 20.5862 22.1039 20.3745 22.7577 19.9387C23.4115 19.5028 23.906 18.8663 24.1667 18.125L25.375 9.66667H7.00833" stroke="black" stroke-width="2" stroke-linecap="round" stroke-linejoin="round"/>
</svg>
