<svg width="60" height="60" viewBox="0 0 60 60" fill="none" xmlns="http://www.w3.org/2000/svg">
<path d="M52.504 10.8984C53.1512 10.8984 53.6759 10.3738 53.6759 9.72656V3.51562C53.6759 1.57711 52.0988 0 50.1602 0H3.51965C1.58114 0 0.00402832 1.57711 0.00402832 3.51562V56.4844C0.00402832 58.4229 1.58114 60 3.51965 60H50.1602C52.0988 60 53.6759 58.4229 53.6759 56.4844V53.2031C53.6759 52.5559 53.1512 52.0312 52.504 52.0312C51.8568 52.0312 51.3321 52.5559 51.3321 53.2031V56.4844C51.3321 57.1305 50.8064 57.6562 50.1602 57.6562H3.51965C2.87348 57.6562 2.34778 57.1305 2.34778 56.4844V3.51562C2.34778 2.86945 2.87348 2.34375 3.51965 2.34375H50.1602C50.8064 2.34375 51.3321 2.86945 51.3321 3.51562V9.72656C51.3321 10.3738 51.8568 10.8984 52.504 10.8984Z" fill="#A7A7A7"/>
<path d="M46.8762 5.625H6.79663C6.1494 5.625 5.62476 6.14965 5.62476 6.79688V31.2891C5.62476 31.9363 6.1494 32.4609 6.79663 32.4609C7.44386 32.4609 7.96851 31.9363 7.96851 31.2891V7.96875H45.7043V9.84375C45.7043 10.491 46.2291 11.0156 46.8762 11.0156C47.5234 11.0156 48.048 10.491 48.048 9.84375V6.79688C48.048 6.14965 47.5234 5.625 46.8762 5.625Z" fill="#A7A7A7"/>
<path d="M7.62466 34.7965C7.40669 34.5785 7.10552 34.4531 6.79614 34.4531C6.48794 34.4531 6.18559 34.5785 5.96763 34.7965C5.74966 35.0145 5.62427 35.3168 5.62427 35.625C5.62427 35.9332 5.74966 36.2355 5.96763 36.4535C6.18559 36.6715 6.48794 36.7969 6.79614 36.7969C7.10552 36.7969 7.40669 36.6715 7.62466 36.4535C7.8438 36.2355 7.96801 35.9332 7.96801 35.625C7.96801 35.3168 7.8438 35.0145 7.62466 34.7965Z" fill="#A7A7A7"/>
<path d="M46.8762 49.4531C46.2289 49.4531 45.7043 49.9778 45.7043 50.625V52.0312H7.96851V40.1367C7.96851 39.4895 7.44386 38.9648 6.79663 38.9648C6.1494 38.9648 5.62476 39.4895 5.62476 40.1367V53.2031C5.62476 53.8504 6.1494 54.375 6.79663 54.375H46.8762C47.5234 54.375 48.048 53.8504 48.048 53.2031V50.625C48.048 49.9778 47.5234 49.4531 46.8762 49.4531Z" fill="#A7A7A7"/>
<path d="M36.3174 41.4068C35.8597 40.9491 35.1178 40.9491 34.6601 41.4067L32.344 43.7229L30.9044 42.2831C29.9953 41.3742 28.5165 41.3742 27.6075 42.2831L26.6707 43.2199C26.2131 43.6775 26.2131 44.4196 26.6707 44.8773C27.1283 45.3349 27.8704 45.3349 28.3281 44.8773L29.256 43.9494L30.6956 45.3892C31.1501 45.8436 31.7471 46.0709 32.344 46.0709C32.941 46.0709 33.5379 45.8436 33.9924 45.3892L36.3174 43.0642C36.775 42.6066 36.775 41.8645 36.3174 41.4068Z" fill="#A7A7A7"/>
<path d="M59.461 24.5839C59.9774 23.7782 60.1316 22.7859 59.8839 21.8615C59.6362 20.9371 59.0066 20.1549 58.1564 19.7154C57.7878 19.5249 57.5621 19.134 57.5814 18.7195C57.6258 17.7635 57.2632 16.8271 56.5866 16.1504C55.9099 15.4737 54.9739 15.1106 54.0175 15.1556C53.601 15.1757 53.2121 14.9491 53.0215 14.5805C52.5821 13.7304 51.7998 13.1008 50.8755 12.8531C49.9507 12.6052 48.9587 12.7595 48.1532 13.276C47.8039 13.5001 47.3524 13.4999 47.0032 13.276C46.1976 12.7594 45.2055 12.6053 44.281 12.8531C43.3566 13.1008 42.5744 13.7304 42.1349 14.5805C41.9444 14.9492 41.5524 15.1743 41.1389 15.1556C40.1826 15.1109 39.2466 15.4737 38.5699 16.1504C37.8932 16.8271 37.5306 17.7635 37.575 18.7194C37.5944 19.134 37.3685 19.5249 37 19.7154C36.1499 20.1549 35.5203 20.937 35.2725 21.8615C35.1543 22.3025 35.1286 22.7589 35.1892 23.2032H14.74C14.0927 23.2032 13.5681 23.7278 13.5681 24.3751C13.5681 25.0223 14.0927 25.5469 14.74 25.5469H35.7879C35.7627 25.6113 35.7335 25.6744 35.6953 25.734C35.1789 26.5396 35.0247 27.532 35.2724 28.4563C35.3064 28.5833 35.3482 28.7072 35.3963 28.8282H14.7396C14.0924 28.8282 13.5677 29.3528 13.5677 30.0001C13.5677 30.6473 14.0924 31.1719 14.7396 31.1719H37.5051C37.556 31.3059 37.5816 31.4504 37.5747 31.5984C37.5303 32.5544 37.8928 33.4907 38.5696 34.1675C39.2462 34.8441 40.1822 35.2074 41.1386 35.1623C41.5526 35.142 41.944 35.3687 42.1346 35.7373C42.2753 36.0097 42.4517 36.2589 42.6562 36.4808V47.4253C42.6562 47.8987 42.941 48.3256 43.3781 48.5074C43.8151 48.6891 44.3188 48.59 44.6546 48.256L47.578 45.3478L50.5015 48.256C50.7256 48.4789 51.0243 48.5971 51.3283 48.5971C51.4797 48.5971 51.6325 48.5677 51.7779 48.5073C52.215 48.3255 52.4999 47.8986 52.4999 47.4251V36.4806C52.7044 36.2589 52.8808 36.0096 53.0215 35.7372C53.2121 35.3685 53.6035 35.1433 54.0175 35.1622C54.9744 35.2074 55.9098 34.8441 56.5865 34.1674C57.2632 33.4906 57.6258 32.5543 57.5814 31.5983C57.5621 31.1838 57.7879 30.7928 58.1564 30.6023C59.0065 30.1628 59.6362 29.3807 59.8839 28.4562C60.1316 27.5317 59.9774 26.5395 59.461 25.7337C59.2369 25.3846 59.2369 24.9332 59.461 24.5839ZM50.1562 44.6066L48.4044 42.864C47.9473 42.4092 47.2087 42.4092 46.7515 42.864L44.9999 44.6066V37.5762C45.701 37.6093 46.4037 37.426 47.0031 37.0419C47.3524 36.8178 47.8039 36.8179 48.1531 37.0419C48.7065 37.3967 49.348 37.5806 49.9953 37.5806C50.0489 37.5806 50.1025 37.5779 50.1562 37.5753V44.6066ZM57.6199 27.8498C57.5414 28.1429 57.3496 28.3811 57.0801 28.5204C55.9007 29.1302 55.1783 30.381 55.2401 31.7074C55.2543 32.0105 55.1438 32.2956 54.9292 32.5103C54.7146 32.7249 54.4295 32.8351 54.1264 32.8212C52.7993 32.7598 51.5492 33.4817 50.9394 34.6612C50.8001 34.9308 50.5619 35.1226 50.2687 35.2011C49.9757 35.2795 49.6733 35.2327 49.418 35.0689C48.859 34.7105 48.2186 34.5315 47.5779 34.5315C46.9375 34.5315 46.2968 34.7106 45.7379 35.0689C45.4825 35.2326 45.1803 35.2795 44.8872 35.2011C44.594 35.1226 44.3558 34.9307 44.2164 34.6612C43.6067 33.4818 42.3567 32.7592 41.0295 32.8212C40.727 32.8352 40.4412 32.7249 40.2266 32.5103C40.0119 32.2956 39.9015 32.0105 39.9157 31.7072C39.9592 30.7712 39.6108 29.8737 38.9882 29.2117C38.9699 29.1917 38.9513 29.172 38.9316 29.1533C38.6843 28.9026 38.3978 28.687 38.0758 28.5204C37.8062 28.3811 37.6145 28.143 37.536 27.8498C37.4575 27.5566 37.5044 27.2544 37.6682 26.999C38.3848 25.8813 38.3848 24.4368 37.6682 23.3191C37.5045 23.0636 37.4575 22.7614 37.536 22.4682C37.6145 22.1751 37.8063 21.9369 38.0759 21.7975C39.2553 21.1878 39.9775 19.9369 39.9158 18.6106C39.9017 18.3074 40.0122 18.0223 40.2267 17.8076C40.4413 17.5929 40.727 17.4828 41.0296 17.4967C42.3567 17.5583 43.6069 16.8363 44.2165 15.6568C44.3558 15.3871 44.5941 15.1954 44.8873 15.1169C45.1804 15.0385 45.4826 15.0852 45.7379 15.2491C46.8558 15.9658 48.3004 15.9658 49.4179 15.2491C49.6733 15.0854 49.9755 15.0383 50.2687 15.1169C50.5619 15.1954 50.8 15.3872 50.9394 15.6568C51.5492 16.8361 52.7999 17.5586 54.1264 17.4967C54.4296 17.4829 54.7146 17.5929 54.9292 17.8076C55.1439 18.0223 55.2543 18.3074 55.2401 18.6106C55.1785 19.9368 55.9006 21.1878 57.0802 21.7975C57.3497 21.9369 57.5414 22.175 57.6199 22.4682C57.6985 22.7614 57.6516 23.0636 57.4878 23.319C56.7712 24.4367 56.7712 25.8812 57.4878 26.9989C57.6516 27.2544 57.6986 27.5566 57.6199 27.8498Z" fill="#232FE5"/>
<path d="M53.1511 21.9711C52.6935 21.5135 51.9515 21.5135 51.4939 21.9711L47.6043 25.8608L46.0559 24.3124C45.5983 23.8548 44.8562 23.8548 44.3985 24.3124C43.9409 24.77 43.9409 25.5121 44.3985 25.9698L46.7755 28.3468C47.0044 28.5757 47.3043 28.6901 47.6042 28.6901C47.9041 28.6901 48.2041 28.5757 48.4328 28.3468L53.1511 23.6285C53.6087 23.1709 53.6087 22.4289 53.1511 21.9711Z" fill="#A7A7A7"/>
<path d="M14.3056 14.1715C14.0876 13.9535 13.7853 13.8281 13.4771 13.8281C13.1688 13.8281 12.8665 13.9535 12.6485 14.1715C12.4306 14.3895 12.3052 14.6918 12.3052 15C12.3052 15.3082 12.4306 15.6105 12.6485 15.8285C12.8665 16.0465 13.1688 16.1719 13.4771 16.1719C13.7853 16.1719 14.0876 16.0465 14.3056 15.8285C14.5235 15.6105 14.6489 15.3082 14.6489 15C14.6489 14.6918 14.5235 14.3895 14.3056 14.1715Z" fill="#A7A7A7"/>
<path d="M23.5544 13.8281H17.8512C17.204 13.8281 16.6793 14.3528 16.6793 15C16.6793 15.6472 17.204 16.1719 17.8512 16.1719H23.5544C24.2016 16.1719 24.7262 15.6472 24.7262 15C24.7262 14.3528 24.2016 13.8281 23.5544 13.8281Z" fill="#A7A7A7"/>
<path d="M35.4888 34.4531H22.0917C21.4444 34.4531 20.9198 34.9778 20.9198 35.625C20.9198 36.2722 21.4444 36.7969 22.0917 36.7969H35.4887C36.1359 36.7969 36.6606 36.2722 36.6606 35.625C36.6606 34.9778 36.136 34.4531 35.4888 34.4531Z" fill="#A7A7A7"/>
</svg>
