<svg width="60" height="60" viewBox="0 0 60 60" fill="none" xmlns="http://www.w3.org/2000/svg">
<g clip-path="url(#clip0)">
<path d="M30.2291 16.3257L16.2806 21.1551C15.669 21.3668 15.345 22.0342 15.5566 22.6459C15.7244 23.1306 16.1784 23.4347 16.6639 23.4347C16.791 23.4347 16.9204 23.4139 17.0473 23.3699L30.9958 18.5405C31.6074 18.3287 31.9314 17.6614 31.7198 17.0496C31.5082 16.438 30.8405 16.1137 30.2291 16.3257Z" fill="#232FE5"/>
<path d="M21.9183 24.7489C20.4563 26.211 20.4562 28.59 21.9183 30.0522C22.6494 30.7832 23.6097 31.1487 24.5699 31.1487C25.5302 31.1487 26.4905 30.7832 27.2215 30.0522C28.6837 28.59 28.6836 26.211 27.2215 24.7489C25.7595 23.2868 23.3806 23.2868 21.9183 24.7489ZM24.5745 28.7993C23.7967 28.7993 23.1664 28.1689 23.1664 27.3912C23.1664 26.6136 23.7969 25.9831 24.5745 25.9831C25.3522 25.9831 25.9826 26.6136 25.9826 27.3912C25.9826 28.1689 25.3523 28.7993 24.5745 28.7993Z" fill="#232FE5"/>
<path d="M22.4686 16.2083C23.4289 16.2083 24.3892 15.8428 25.1204 15.1118C26.5825 13.6497 26.5824 11.2706 25.1204 9.80848C23.6583 8.34633 21.2791 8.34645 19.8172 9.80848C19.1089 10.5168 18.7188 11.4585 18.7188 12.4601C18.7188 13.4617 19.1089 14.4034 19.8172 15.1118C20.5481 15.8428 21.5083 16.2083 22.4686 16.2083ZM22.4524 11.0607C23.2301 11.0607 23.8605 11.6912 23.8605 12.4689C23.8605 13.2465 23.23 13.877 22.4524 13.877C21.6747 13.877 21.0442 13.2465 21.0442 12.4689C21.0442 11.6912 21.6747 11.0607 22.4524 11.0607Z" fill="#232FE5"/>
<path d="M36.5997 24.6518L34.6342 26.6173C34.1766 27.0749 34.1766 27.8169 34.6342 28.2747C34.8631 28.5035 35.163 28.6179 35.4629 28.6179C35.7627 28.6179 36.0627 28.5035 36.2915 28.2747L38.257 26.3092C38.7146 25.8516 38.7146 25.1095 38.257 24.6518C37.7995 24.1942 37.0574 24.1942 36.5997 24.6518Z" fill="#232FE5"/>
<path d="M59.6565 26.1294L59.6568 26.1287L53.392 19.864L48.8627 2.96023C48.5872 1.93226 47.9279 1.07304 47.0064 0.540893C46.0846 0.00862685 45.0107 -0.132584 43.9829 0.142924L29.6181 3.99195L26.7995 1.17335C25.2459 -0.380202 22.7182 -0.380202 21.1648 1.17335L4.7577 17.5804C3.46406 18.8741 3.24879 20.8427 4.10953 22.3624L0.343242 26.1287L0.343477 26.1294C0.128086 26.345 0 26.6406 0 26.9573V58.8323C0 59.4796 0.524648 60.0042 1.17188 60.0042H24.7266C25.3738 60.0042 25.8984 59.4796 25.8984 58.8323C25.8984 58.1851 25.3738 57.6605 24.7266 57.6605H2.34375V29.7865L6.67137 34.1141C6.89109 34.3338 7.18922 34.4573 7.5 34.4573H52.5C52.8108 34.4573 53.1089 34.3338 53.3286 34.1141L57.6562 29.7865V57.6605H35.2734C34.6262 57.6605 34.1016 58.1851 34.1016 58.8323C34.1016 59.4796 34.6262 60.0042 35.2734 60.0042H58.8281C59.4754 60.0042 60 59.4796 60 58.8323V26.9573C60 26.6406 59.8719 26.345 59.6565 26.1294ZM44.5895 2.40675C45.0128 2.29343 45.4549 2.35156 45.8345 2.5707C46.2141 2.78984 46.4855 3.14363 46.5989 3.56691L52.9699 27.3438L39.9213 14.2952C40.093 14.2741 40.2652 14.2418 40.4368 14.1957C42.4341 13.6605 43.6235 11.6002 43.0884 9.60301C42.8292 8.63551 42.2087 7.8268 41.3413 7.32594C40.4737 6.82508 39.4631 6.69184 38.4957 6.95129C37.5282 7.21051 36.7195 7.83102 36.2187 8.69844C35.9626 9.14199 35.8034 9.62317 35.7428 10.1166L31.5316 5.90551L44.5895 2.40675ZM39.462 11.9927C38.6842 11.9927 38.0538 11.3622 38.0538 10.5846C38.0538 9.80692 38.6843 9.17645 39.462 9.17645C40.2396 9.17645 40.8701 9.80692 40.8701 10.5846C40.8701 11.3622 40.2396 11.9927 39.462 11.9927ZM7.98539 32.1136L2.82926 26.9573L5.66449 24.1221L13.6561 32.1136H7.98539ZM52.0146 32.1136H32.4458C32.813 31.6535 32.784 30.9813 32.3579 30.5553C31.9003 30.0977 31.1583 30.0977 30.7007 30.5553L29.1425 32.1136H16.9706L6.49418 21.6372C6.49383 21.6369 6.49348 21.6364 6.49312 21.6361C6.49277 21.6357 6.4923 21.6354 6.49195 21.635L6.41496 21.558C5.77535 20.9183 5.77523 19.8774 6.41496 19.2378L22.8221 2.83062C23.4618 2.19101 24.5027 2.19101 25.1422 2.83062L41.7838 19.4723L40.3978 20.8583C39.9402 21.3159 39.9402 22.0579 40.3978 22.5157C40.6267 22.7445 40.9266 22.8589 41.2264 22.8589C41.5263 22.8589 41.8263 22.7445 42.0551 22.5157L43.4411 21.1297L53.2198 30.9085L52.0146 32.1136ZM55.6896 28.4386L54.6053 24.392L57.1707 26.9574L55.6896 28.4386Z" fill="#A7A7A7"/>
<path d="M24.6094 48.0464V42.8901C24.6094 42.2429 24.0847 41.7183 23.4375 41.7183H7.5C6.85277 41.7183 6.32812 42.2429 6.32812 42.8901V48.0464C6.32812 48.6936 6.85277 49.2183 7.5 49.2183H23.4375C24.0847 49.2183 24.6094 48.6936 24.6094 48.0464ZM22.2656 46.8745H8.67188V44.062H22.2656V46.8745Z" fill="#232FE5"/>
<path d="M7.5 52.0234C6.85277 52.0234 6.32812 52.5481 6.32812 53.1953C6.32812 53.8425 6.85277 54.3672 7.5 54.3672H15.4688C16.116 54.3672 16.6406 53.8425 16.6406 53.1953C16.6406 52.5481 16.116 52.0234 15.4688 52.0234H7.5Z" fill="#A7A7A7"/>
<path d="M30 57.6558C29.6918 57.6558 29.3895 57.7812 29.1715 57.9991C28.9535 58.2171 28.8281 58.5194 28.8281 58.8276C28.8281 59.137 28.9535 59.4382 29.1715 59.6562C29.3895 59.8741 29.6918 59.9995 30 59.9995C30.3082 59.9995 30.6105 59.8741 30.8285 59.6562C31.0465 59.4382 31.1719 59.137 31.1719 58.8276C31.1719 58.5194 31.0465 58.2171 30.8285 57.9991C30.6105 57.7812 30.3082 57.6558 30 57.6558Z" fill="#A7A7A7"/>
</g>
<defs>
<clipPath id="clip0">
<rect width="60" height="60" fill="white"/>
</clipPath>
</defs>
</svg>
