<svg width="14" height="14" viewBox="0 0 14 14" fill="none" xmlns="http://www.w3.org/2000/svg">
<path fill-rule="evenodd" clip-rule="evenodd" d="M11.0837 10.5002H2.91702C2.5956 10.5002 2.33368 10.2388 2.33368 9.91682V4.22932L6.65035 7.46682C6.75418 7.54499 6.87727 7.58349 7.00035 7.58349C7.12343 7.58349 7.24652 7.54499 7.35035 7.46682L11.667 4.22932V9.91682C11.667 10.2388 11.4051 10.5002 11.0837 10.5002ZM10.6948 3.50017L7.00051 6.271L3.30626 3.50017H10.6948ZM11.0837 2.3335H2.91699C1.95216 2.3335 1.16699 3.11866 1.16699 4.0835V9.91683C1.16699 10.8817 1.95216 11.6668 2.91699 11.6668H11.0837C12.0485 11.6668 12.8337 10.8817 12.8337 9.91683V4.0835C12.8337 3.11866 12.0485 2.3335 11.0837 2.3335Z" fill="#231F20"/>
<mask id="mask0" mask-type="alpha" maskUnits="userSpaceOnUse" x="1" y="2" width="12" height="10">
<path fill-rule="evenodd" clip-rule="evenodd" d="M11.0837 10.5002H2.91702C2.5956 10.5002 2.33368 10.2388 2.33368 9.91682V4.22932L6.65035 7.46682C6.75418 7.54499 6.87727 7.58349 7.00035 7.58349C7.12343 7.58349 7.24652 7.54499 7.35035 7.46682L11.667 4.22932V9.91682C11.667 10.2388 11.4051 10.5002 11.0837 10.5002ZM10.6948 3.50017L7.00051 6.271L3.30626 3.50017H10.6948ZM11.0837 2.3335H2.91699C1.95216 2.3335 1.16699 3.11866 1.16699 4.0835V9.91683C1.16699 10.8817 1.95216 11.6668 2.91699 11.6668H11.0837C12.0485 11.6668 12.8337 10.8817 12.8337 9.91683V4.0835C12.8337 3.11866 12.0485 2.3335 11.0837 2.3335Z" fill="white"/>
</mask>
<g mask="url(#mask0)">
<rect width="14" height="14" fill="#0D1C2E"/>
</g>
</svg>
