<svg width="10" height="10" viewBox="0 0 10 10" fill="none" xmlns="http://www.w3.org/2000/svg">
<path fill-rule="evenodd" clip-rule="evenodd" d="M2.3 1C1.583 1 1 1.583 1 2.3C1 5.994 4.0055 9 7.7 9C8.4165 9 9 8.417 9 7.7C9 7.6445 8.9965 7.59 8.9895 7.536L6.6795 7.006C6.6335 7.094 6.583 7.1895 6.537 7.2785C6.309 7.7135 6.144 8.0295 5.723 7.86C4.07 7.28 2.7205 5.93 2.133 4.257C1.9545 3.8645 2.2945 3.6865 2.7255 3.4615C2.813 3.4155 2.9075 3.366 2.994 3.321L2.464 1.0105C2.4085 1.0035 2.3545 1 2.3 1ZM7.7 10C3.454 10 0 6.546 0 2.3C0 1.0315 1.0315 0 2.3 0C2.43 0 2.5585 0.011 2.683 0.0325C2.8045 0.052 2.9265 0.083 3.0455 0.124C3.208 0.1805 3.3305 0.317 3.369 0.485L4.0535 3.467C4.0915 3.631 4.044 3.803 3.927 3.925C3.859 3.996 3.8575 3.9975 3.2375 4.322C3.7395 5.409 4.612 6.2785 5.677 6.7635C6.002 6.143 6.004 6.141 6.075 6.073C6.197 5.956 6.37 5.9105 6.533 5.9465L9.5155 6.631C9.683 6.6695 9.8195 6.7915 9.8755 6.954C9.9165 7.072 9.9475 7.194 9.968 7.3195C9.989 7.443 10 7.571 10 7.7C10 8.9685 8.968 10 7.7 10Z" fill="#343434"/>
</svg>
