<svg width="11" height="10" viewBox="0 0 11 10" fill="none" xmlns="http://www.w3.org/2000/svg">
<path d="M10.586 4.01617C10.5263 3.67167 10.236 3.46496 9.81612 3.46037C9.68659 3.45853 9.55798 3.47139 9.43212 3.45761C9.18407 3.43189 9.11885 3.51457 9.12068 3.71117C9.13263 4.67578 9.12895 5.63948 9.12528 6.60134C9.12252 7.1057 8.63011 7.62383 8.03848 7.7552C6.20111 8.1585 4.36559 8.56824 2.52639 8.96786C2.31969 9.01288 2.10196 9.03584 1.89158 9.03401C1.79972 9.03401 1.67294 8.96419 1.63344 8.89621C1.60771 8.85119 1.68855 8.74187 1.75194 8.68583C1.83554 8.61785 1.94211 8.56364 2.05143 8.52598C2.38859 8.40563 2.73126 8.29631 3.07209 8.18331C4.43633 7.72948 5.80333 7.28116 7.16573 6.82458C7.78033 6.61696 8.11197 6.20722 8.12208 5.69001C8.15331 4.01433 8.1377 2.33866 8.13035 0.661147C8.13035 0.395648 7.99254 0.174245 7.67652 0.0594102C7.31272 -0.0710425 6.99302 0.0327686 6.67699 0.183432C4.74592 1.10487 2.81578 2.02447 0.882872 2.94407C0.314209 3.21508 -0.00273822 3.60736 1.78246e-05 4.16592C0.00644859 5.75064 0.00185667 7.33261 0.00369403 8.9155C0.00369403 8.9945 0.0119615 9.07535 0.0367659 9.15068C0.226933 9.68903 0.720265 9.9977 1.40193 9.9977C2.76065 10.0014 4.12398 9.99954 5.48363 9.99954C6.83868 9.99954 8.18914 10.0014 9.54419 9.9977C9.83817 9.9977 10.1092 9.93707 10.3297 9.75517C10.6154 9.5255 10.6007 9.23336 10.6007 8.94214C10.6034 7.39875 10.6034 5.85721 10.6016 4.31107C10.6044 4.21461 10.6025 4.11355 10.586 4.01617ZM4.93609 3.521C5.07298 3.16547 5.37155 2.94315 5.82721 2.88619C6.12854 2.84761 6.39128 3.0341 6.43446 3.30603C6.49969 3.72495 5.97604 4.21185 5.45882 4.21001C5.02704 4.21001 4.78635 3.90777 4.93609 3.521Z" fill="#343434"/>
</svg>
