<svg width="17" height="10" viewBox="0 0 17 10" fill="none" xmlns="http://www.w3.org/2000/svg">
<path d="M16.6667 5C16.6667 7.75132 14.4445 10 11.6667 10C8.91536 10 6.66669 7.75132 6.66669 5C6.66669 2.24868 8.88891 0 11.6402 0C14.4445 0 16.6667 2.24868 16.6667 5Z" fill="#FFB600"/>
<path d="M11.6667 0C14.418 0 16.6667 2.24868 16.6667 5C16.6667 7.75132 14.4445 10 11.6667 10C8.91536 10 6.66669 7.75132 6.66669 5" fill="#F7981D"/>
<path d="M11.6667 0C14.418 0 16.6667 2.24868 16.6667 5C16.6667 7.75132 14.4445 10 11.6667 10" fill="#FF8500"/>
<path d="M4.94709 0C2.22222 0.026455 0 2.24868 0 5C0 7.75132 2.22222 10 5 10C6.2963 10 7.46032 9.49735 8.35979 8.7037C8.54497 8.54497 8.7037 8.35979 8.86243 8.1746H7.83069C7.69841 8.01587 7.56614 7.83069 7.46032 7.67196H9.23281C9.33862 7.51323 9.44444 7.32804 9.52381 7.14286H7.16931C7.08995 6.98413 7.01058 6.79894 6.95767 6.61376H9.70899C9.86773 6.11111 9.97355 5.58201 9.97355 5.02645C9.97355 4.65608 9.92064 4.31217 9.86772 3.96825H6.79894C6.8254 3.78307 6.87831 3.62434 6.93122 3.43915H9.68254C9.62963 3.25397 9.55026 3.06878 9.4709 2.91005H7.14286C7.22222 2.72487 7.32804 2.56614 7.43386 2.38095H9.20635C9.10053 2.19577 8.96825 2.01058 8.80952 1.85185H7.83069C7.98942 1.66667 8.14815 1.50794 8.33333 1.34921C7.46032 0.529101 6.26984 0.05291 4.97355 0.05291C4.97355 -5.12474e-08 4.97355 0 4.94709 0Z" fill="#FF5050"/>
<path d="M0 4.99982C0 7.75115 2.22222 9.99983 5 9.99983C6.2963 9.99983 7.46032 9.49718 8.35979 8.70353C8.54497 8.5448 8.7037 8.35961 8.86243 8.17443H7.83069C7.69841 8.0157 7.56614 7.83051 7.46032 7.67178H9.23281C9.33862 7.51305 9.44444 7.32787 9.52381 7.14268H7.16931C7.08995 6.98395 7.01058 6.79877 6.95767 6.61358H9.70899C9.86773 6.11094 9.97355 5.58183 9.97355 5.02628C9.97355 4.65591 9.92064 4.31199 9.86772 3.96808H6.79894C6.8254 3.78289 6.87831 3.62416 6.93122 3.43898H9.68254C9.62963 3.25379 9.55026 3.06861 9.4709 2.90988H7.14286C7.22222 2.72469 7.32804 2.56596 7.43386 2.38078H9.20635C9.10053 2.19559 8.96825 2.01041 8.80952 1.85168H7.83069C7.98942 1.66649 8.14815 1.50776 8.33333 1.34903C7.46032 0.528925 6.26984 0.0527344 4.97355 0.0527344H4.94709" fill="#E52836"/>
<path d="M4.99999 9.99983C6.29629 9.99983 7.46031 9.49718 8.35978 8.70353C8.54497 8.5448 8.7037 8.35961 8.86243 8.17443H7.83068C7.6984 8.0157 7.56613 7.83051 7.46031 7.67178H9.2328C9.33862 7.51305 9.44444 7.32787 9.5238 7.14268H7.1693C7.08994 6.98395 7.01057 6.79877 6.95766 6.61358H9.70899C9.86772 6.11094 9.97354 5.58183 9.97354 5.02628C9.97354 4.65591 9.92063 4.31199 9.86772 3.96808H6.79893C6.82539 3.78289 6.8783 3.62416 6.93121 3.43898H9.68253C9.62962 3.25379 9.55026 3.06861 9.47089 2.90988H7.14285C7.22221 2.72469 7.32803 2.56596 7.43385 2.38078H9.20634C9.10052 2.19559 8.96825 2.01041 8.80952 1.85168H7.83068C7.98941 1.66649 8.14814 1.50776 8.33332 1.34903C7.46031 0.528925 6.26983 0.0527344 4.97354 0.0527344H4.94708" fill="#CB2026"/>
<path d="M6.77244 6.26945L6.85181 5.81971C6.82535 5.81971 6.77244 5.84617 6.71953 5.84617C6.53435 5.84617 6.50789 5.74035 6.53435 5.68744L6.69308 4.76151H6.98408L7.06345 4.25887H6.7989L6.85181 3.94141H6.32271C6.32271 3.94141 6.00525 5.68744 6.00525 5.89908C6.00525 6.21654 6.19043 6.34881 6.42853 6.34881C6.58726 6.34881 6.71953 6.2959 6.77244 6.26945Z" fill="white"/>
<path d="M6.95776 5.42332C6.95776 6.16406 7.46041 6.34925 7.88369 6.34925C8.28051 6.34925 8.43925 6.26988 8.43925 6.26988L8.54507 5.76724C8.54507 5.76724 8.25406 5.89951 7.98951 5.89951C7.4075 5.89951 7.51332 5.47623 7.51332 5.47623H8.59798C8.59798 5.47623 8.67734 5.13231 8.67734 5.00004C8.67734 4.65612 8.49216 4.23284 7.91014 4.23284C7.35459 4.17993 6.95776 4.76194 6.95776 5.42332ZM7.88369 4.65612C8.17469 4.65612 8.12179 5.00004 8.12179 5.02649H7.53977C7.53977 5.00004 7.59268 4.65612 7.88369 4.65612Z" fill="white"/>
<path d="M3.86247 4.17969C3.4921 4.17969 3.22755 4.28551 3.22755 4.28551L3.14818 4.73525C3.14818 4.73525 3.38628 4.62943 3.73019 4.62943C3.91538 4.62943 4.0741 4.65588 4.0741 4.81461C4.0741 4.92043 4.04765 4.94689 4.04765 4.94689C4.04765 4.94689 3.88892 4.94689 3.80956 4.94689C3.35982 4.94689 2.85718 5.13207 2.85718 5.74054C2.85718 6.21674 3.17464 6.32256 3.35982 6.32256C3.73019 6.32256 3.88892 6.08446 3.91538 6.08446L3.88892 6.2961H4.36511L4.57675 4.84107C4.57675 4.20614 4.04765 4.17969 3.86247 4.17969ZM3.96828 5.37017C3.96828 5.44954 3.91538 5.87282 3.59792 5.87282C3.43919 5.87282 3.38628 5.74054 3.38628 5.66118C3.38628 5.5289 3.46564 5.34372 3.86247 5.34372C3.94183 5.37017 3.96828 5.37017 3.96828 5.37017Z" fill="white"/>
<path d="M5.07929 6.32263C5.21157 6.32263 5.87294 6.34908 5.87294 5.6348C5.87294 4.97342 5.23802 5.1057 5.23802 4.84115C5.23802 4.70887 5.34384 4.65596 5.52903 4.65596C5.60839 4.65596 5.8994 4.68242 5.8994 4.68242L5.97876 4.20623C5.97876 4.20623 5.79358 4.15332 5.47612 4.15332C5.07929 4.15332 4.68247 4.31205 4.68247 4.84115C4.68247 5.44961 5.34384 5.3967 5.34384 5.6348C5.34384 5.79353 5.15866 5.81998 5.02638 5.81998C4.78829 5.81998 4.55019 5.74062 4.55019 5.74062L4.47083 6.21681C4.49728 6.26972 4.62956 6.32263 5.07929 6.32263Z" fill="white"/>
<path d="M15.6349 3.75684L15.5291 4.47112C15.5291 4.47112 15.3174 4.20657 15.0264 4.20657C14.5502 4.20657 14.127 4.78858 14.127 5.47641C14.127 5.89969 14.3386 6.34943 14.7883 6.34943C15.1058 6.34943 15.291 6.13779 15.291 6.13779L15.2645 6.32297H15.7936L16.1904 3.78329L15.6349 3.75684ZM15.3968 5.15895C15.3968 5.44996 15.2645 5.82033 14.9735 5.82033C14.7883 5.82033 14.6825 5.6616 14.6825 5.39705C14.6825 4.97377 14.8677 4.70922 15.1058 4.70922C15.291 4.70922 15.3968 4.84149 15.3968 5.15895Z" fill="white"/>
<path d="M0.978842 6.29652L1.2963 4.39176L1.34921 6.29652H1.71958L2.40741 4.39176L2.11641 6.29652H2.67196L3.09524 3.75684H2.22223L1.69313 5.31768L1.66667 3.75684H0.899477L0.476196 6.29652H0.978842Z" fill="white"/>
<path d="M11.2435 6.26974L11.3493 5.68773C11.3493 5.68773 11.0847 5.82 10.8996 5.82C10.5292 5.82 10.3705 5.529 10.3705 5.21154C10.3705 4.57662 10.6879 4.23271 11.0583 4.23271C11.3228 4.23271 11.5345 4.39144 11.5345 4.39144L11.6138 3.83589C11.6138 3.83589 11.2964 3.70361 11.0054 3.70361C10.3969 3.70361 9.78845 4.23271 9.78845 5.238C9.78845 5.89937 10.1059 6.3491 10.7408 6.3491C10.9525 6.3491 11.2435 6.26974 11.2435 6.26974Z" fill="white"/>
<path d="M9.17991 6.29593C9.33864 5.42291 9.3651 4.70862 9.73547 4.84089C9.78838 4.49697 9.86774 4.3647 9.92065 4.23242C9.92065 4.23242 9.8942 4.23242 9.81483 4.23242C9.57674 4.23242 9.39155 4.54988 9.39155 4.54988L9.44446 4.25888H8.94182L8.5979 6.32238H9.17991V6.29593Z" fill="white"/>
<path d="M12.4604 4.17969C12.09 4.17969 11.8254 4.28551 11.8254 4.28551L11.7461 4.73525C11.7461 4.73525 11.9842 4.62943 12.3281 4.62943C12.5133 4.62943 12.672 4.65588 12.672 4.81461C12.672 4.92043 12.6456 4.94689 12.6456 4.94689C12.6456 4.94689 12.4868 4.94689 12.4075 4.94689C11.9577 4.94689 11.4551 5.13207 11.4551 5.74054C11.4551 6.21674 11.7725 6.32256 11.9577 6.32256C12.3281 6.32256 12.4868 6.08446 12.5133 6.08446L12.4868 6.2961H12.963L13.1747 4.84107C13.2011 4.20614 12.6456 4.17969 12.4604 4.17969ZM12.5926 5.37017C12.5926 5.44954 12.5397 5.87282 12.2223 5.87282C12.0635 5.87282 12.0106 5.74054 12.0106 5.66118C12.0106 5.5289 12.09 5.34372 12.4868 5.34372C12.5662 5.37017 12.5662 5.37017 12.5926 5.37017Z" fill="white"/>
<path d="M13.6242 6.29593C13.783 5.42291 13.8094 4.70862 14.1798 4.84089C14.2327 4.49697 14.3121 4.3647 14.365 4.23242C14.365 4.23242 14.3385 4.23242 14.2592 4.23242C14.0211 4.23242 13.8359 4.54988 13.8359 4.54988L13.8888 4.25888H13.3862L13.0422 6.32238H13.6242V6.29593Z" fill="white"/>
<path d="M3.14818 4.76152C3.14818 4.76152 3.38628 4.6557 3.73019 4.6557C3.91538 4.6557 4.0741 4.68215 4.0741 4.84088C4.0741 4.9467 4.04765 4.97316 4.04765 4.97316C4.04765 4.97316 3.88892 4.97316 3.80956 4.97316C3.35982 4.97316 2.85718 5.15834 2.85718 5.7668C2.85718 6.24299 3.17464 6.34881 3.35982 6.34881C3.73019 6.34881 3.88892 6.11072 3.91538 6.11072L3.88892 6.32236H4.36511L4.57675 4.86734C4.57675 4.25888 4.04765 4.23242 3.83601 4.23242L3.14818 4.76152ZM4.23283 5.36998C4.23283 5.44935 3.91538 5.87262 3.59792 5.87262C3.43919 5.87262 3.38628 5.74035 3.38628 5.66098C3.38628 5.52871 3.46564 5.34353 3.86247 5.34353C3.94183 5.36998 4.23283 5.36998 4.23283 5.36998Z" fill="#DCE5E5"/>
<path d="M7.22217 5.42332C7.22217 6.16406 7.46026 6.34925 7.88354 6.34925C8.28037 6.34925 8.4391 6.26988 8.4391 6.26988L8.54492 5.76724C8.54492 5.76724 8.25391 5.89951 7.98936 5.89951C7.40735 5.89951 7.51317 5.47623 7.51317 5.47623H8.59783C8.59783 5.47623 8.67719 5.13231 8.67719 5.00004C8.67719 4.65612 8.49201 4.23284 7.91 4.23284C7.35444 4.17993 7.22217 4.76194 7.22217 5.42332ZM7.88354 4.65612C8.17455 4.65612 8.22746 5.00004 8.22746 5.02649H7.53963C7.53963 5.00004 7.59254 4.65612 7.88354 4.65612Z" fill="#DCE5E5"/>
<path d="M8.62427 6.29593H9.17982C9.33855 5.42291 9.36501 4.70862 9.73538 4.84089C9.78829 4.49697 9.86765 4.3647 9.92056 4.23242C9.92056 4.23242 9.89411 4.23242 9.81474 4.23242C9.57665 4.23242 9.39146 4.54988 9.39146 4.54988L9.44437 4.25888" fill="#DCE5E5"/>
<path d="M5.95239 5.89908C5.95239 6.21654 6.13758 6.34881 6.37567 6.34881C6.56086 6.34881 6.71959 6.2959 6.7725 6.26945L6.85186 5.81971C6.82541 5.81971 6.7725 5.84617 6.71959 5.84617C6.5344 5.84617 6.50795 5.74035 6.5344 5.68744L6.69313 4.76151H6.98414L7.0635 4.25887H6.79895L6.85186 3.94141" fill="#DCE5E5"/>
<path d="M4.49731 6.26972C4.49731 6.26972 4.65604 6.32263 5.10578 6.32263C5.23805 6.32263 5.89943 6.34908 5.89943 5.6348C5.89943 4.97342 5.26451 5.1057 5.26451 4.84115C5.26451 4.70887 5.37033 4.65596 5.55552 4.65596C5.63488 4.65596 5.92589 4.68242 5.92589 4.68242L6.00525 4.20623C6.00525 4.20623 5.82007 4.15332 5.5026 4.15332C5.10578 4.15332 4.9735 4.31205 4.9735 4.84115C4.9735 5.44961 5.37033 5.3967 5.37033 5.6348C5.37033 5.79353 5.18515 5.81998 5.05287 5.81998" fill="#DCE5E5"/>
<path d="M15.5291 4.47103C15.5291 4.47103 15.3175 4.20648 15.0265 4.20648C14.5503 4.20648 14.3916 4.78849 14.3916 5.47632C14.3916 5.89959 14.3387 6.34933 14.7884 6.34933C15.1059 6.34933 15.291 6.13769 15.291 6.13769L15.2646 6.32287H15.7937L16.1905 3.7832L15.5291 4.47103ZM15.5027 5.15886C15.5027 5.44986 15.2646 5.82023 14.9736 5.82023C14.7884 5.82023 14.6826 5.6615 14.6826 5.39695C14.6826 4.97367 14.8678 4.70912 15.1059 4.70912C15.291 4.70912 15.5027 4.8414 15.5027 5.15886Z" fill="#DCE5E5"/>
<path d="M0.978842 6.29652L1.2963 4.39176L1.34921 6.29652H1.71958L2.40741 4.39176L2.11641 6.29652H2.67196L3.09524 3.75684H2.43387L1.69313 5.31768L1.66667 3.75684H1.37567L0.476196 6.29652H0.978842Z" fill="#DCE5E5"/>
<path d="M11.2435 6.26974L11.3493 5.68773C11.3493 5.68773 11.0847 5.82 10.8995 5.82C10.5292 5.82 10.3704 5.529 10.3704 5.21154C10.3704 4.57662 10.6879 4.23271 11.0583 4.23271C11.3228 4.23271 11.5345 4.39144 11.5345 4.39144L11.6138 3.83589C11.6138 3.83589 11.2964 3.70361 11.0054 3.70361C10.3969 3.70361 10.053 4.23271 10.053 5.238C10.053 5.89937 10.1059 6.3491 10.7408 6.3491C10.9524 6.3491 11.2435 6.26974 11.2435 6.26974Z" fill="#DCE5E5"/>
<path d="M11.7461 4.76152C11.7461 4.76152 11.9842 4.6557 12.3281 4.6557C12.5133 4.6557 12.672 4.68215 12.672 4.84088C12.672 4.9467 12.6456 4.97316 12.6456 4.97316C12.6456 4.97316 12.4868 4.97316 12.4075 4.97316C11.9577 4.97316 11.4551 5.15834 11.4551 5.7668C11.4551 6.24299 11.7725 6.34881 11.9577 6.34881C12.3281 6.34881 12.4868 6.11072 12.5133 6.11072L12.4868 6.32236H12.963L13.1747 4.86734C13.1747 4.25888 12.6456 4.23242 12.4339 4.23242L11.7461 4.76152ZM12.8307 5.36998C12.8307 5.44935 12.5133 5.87262 12.1958 5.87262C12.0371 5.87262 11.9842 5.74035 11.9842 5.66098C11.9842 5.52871 12.0635 5.34353 12.4604 5.34353C12.5662 5.36998 12.8307 5.36998 12.8307 5.36998Z" fill="#DCE5E5"/>
<path d="M13.0688 6.29593H13.6244C13.7831 5.42291 13.8096 4.70862 14.18 4.84089C14.2329 4.49697 14.3122 4.3647 14.3651 4.23242C14.3651 4.23242 14.3387 4.23242 14.2593 4.23242C14.0212 4.23242 13.836 4.54988 13.836 4.54988L13.889 4.25888" fill="#DCE5E5"/>
</svg>
