<svg width="311" height="403" viewBox="0 0 311 403" fill="none" xmlns="http://www.w3.org/2000/svg">
<path d="M108.86 229.963C159.093 222.72 198.503 285.346 160.856 314.759C144.62 327.444 121.047 326.236 102.618 315.545C60.056 290.851 65.7271 236.175 108.86 229.963Z" fill="#FAC663" fill-opacity="0.15"/>
<path d="M150.117 209.297C108.475 241.831 40.8487 180.973 71.3423 138.457C85.2365 119.088 115.643 115.76 140.342 133.804C168.034 154.022 173.527 191.007 150.117 209.297Z" fill="#FAC663" fill-opacity="0.15"/>
<path d="M259.01 326.598C263.546 320.483 273.006 311.436 283.634 302.894C294.86 293.856 307.384 285.379 316.738 281.495C342.03 271.041 359.378 234.973 330.49 210.783C303.78 188.423 284.36 206.058 259.61 184.428C234.611 162.556 205.828 165.062 188.031 180.529C171.561 194.846 164.507 220.268 178.617 247.716C193.66 276.959 171.881 291.488 187.117 322.798C203.595 356.722 242.789 348.493 259.01 326.598Z" fill="#FAC663" fill-opacity="0.15"/>
<path d="M223.408 152.04C211.629 161.242 196.177 162.316 182.388 156.254C141.392 138.226 135.218 73.7523 173.751 58.4881C222.474 39.1648 265.027 119.523 223.408 152.04Z" fill="#FAC663" fill-opacity="0.15"/>
<path d="M279.404 184.915C240.514 162.699 241.037 98.0402 281.113 86.9451C329.386 73.5786 364.254 151.353 324.164 182.675C311.299 192.727 294.187 193.361 279.404 184.915Z" fill="#FAC663" fill-opacity="0.15"/>
</svg>
