<svg width="349" height="426" viewBox="0 0 349 426" fill="none" xmlns="http://www.w3.org/2000/svg">
<path d="M141.06 133.021C178.798 179.276 139.537 256.935 87.0734 236.796C64.4463 228.111 51.3817 203.615 50.9947 178.561C50.1034 120.697 108.663 93.3006 141.06 133.021Z" fill="#FAC663" fill-opacity="0.15"/>
<path d="M186.893 162.097C128.862 139.821 149.245 34.787 210.585 39.7788C238.531 42.0554 260.31 70.6927 257.083 106.521C253.476 146.683 219.517 174.621 186.893 162.097Z" fill="#FAC663" fill-opacity="0.15"/>
<path d="M134.607 342.918C143.52 343.788 158.373 347.846 173.424 353.386C189.338 359.229 205.473 366.722 215.056 373.799C240.92 392.965 287.795 388.61 294.68 344.836C301.04 304.367 271.494 295.47 278.305 257.418C285.211 218.97 265.245 191.471 238.869 182.896C214.455 174.963 184.551 183.249 165.427 214.098C145.058 246.973 117.214 233.817 94.8783 268.139C70.6604 305.297 102.705 339.826 134.607 342.918Z" fill="#FAC663" fill-opacity="0.15"/>
<path d="M289.025 201.306C272.611 195.005 262.166 180.077 259.923 162.506C253.26 110.258 314.522 64.9854 353.257 94.5865C402.26 132.003 347.025 223.57 289.025 201.306Z" fill="#FAC663" fill-opacity="0.15"/>
<path d="M289.808 277.668C288.643 225.008 354.149 186.374 389.617 220.056C432.341 260.626 375.054 342.881 319.186 321.436C301.257 314.553 290.249 297.687 289.808 277.668Z" fill="#FAC663" fill-opacity="0.15"/>
</svg>
