<svg width="21" height="18" viewBox="0 0 21 18" fill="none" xmlns="http://www.w3.org/2000/svg">
<path d="M16.8034 6.52453C13.8389 8.22469 14.3438 13.1874 17.5593 13.1874C18.9462 13.1874 20.1464 12.1448 20.6808 10.8119C21.915 7.73355 19.3485 5.06432 16.8034 6.52453Z" fill="#FF7236"/>
<path d="M13.7587 7.13908C17.3156 7.13908 18.3805 1.09917 15.0014 0.106185C13.4618 -0.346079 11.7112 0.739105 11.1489 2.72284C10.518 4.94628 11.7592 7.13908 13.7587 7.13908Z" fill="#FF7236"/>
<path d="M12.844 17.8903C12.35 17.7537 11.4734 17.6658 10.5557 17.6531C9.58576 17.6389 8.57021 17.7084 7.91314 17.8903C6.13849 18.3847 3.72372 17.1886 4.25355 14.7045C4.74363 12.408 6.50447 12.5389 6.92087 10.3625C7.34041 8.16298 8.97086 7.10147 10.5557 7.18444C12.0226 7.26144 13.4502 8.31922 13.8392 10.363C14.2531 12.5409 16.0103 12.4088 16.4997 14.7045C17.0315 17.1906 14.6116 18.3802 12.844 17.8903Z" fill="#FF7236"/>
<path d="M7.49883 7.13932C8.50492 7.13932 9.36897 6.55499 9.84911 5.66068C11.2764 3.00141 8.93222 -0.680001 6.25595 0.10841C2.87099 1.10414 3.94397 7.13932 7.49883 7.13932Z" fill="#FF7236"/>
<path d="M5.89116 11.21C7.03322 8.41567 4.32615 5.00238 1.74076 6.07635C-1.37349 7.36985 3.63247e-05 12.9488 3.42428 12.9488C4.5232 12.9488 5.45707 12.2723 5.89116 11.21Z" fill="#FF7236"/>
<path d="M12.8439 17.8903C12.3499 17.7537 11.4733 17.6658 10.5557 17.6531V7.18445C12.0225 7.26145 13.4501 8.31922 13.8391 10.363C14.2531 12.5409 16.0103 12.4088 16.4996 14.7045C17.0314 17.1906 14.6115 18.3802 12.8439 17.8903Z" fill="#FF7236"/>
</svg>
