<svg width="28" height="28" viewBox="0 0 28 28" fill="none" xmlns="http://www.w3.org/2000/svg">
<path d="M23.2969 12.1224C22.9948 12.1224 22.75 12.3673 22.75 12.6692V25.2656C22.75 26.1703 22.014 26.9062 21.1094 26.9062H6.89062C5.98598 26.9062 5.25 26.1703 5.25 25.2656V2.73438C5.25 1.82973 5.98598 1.09375 6.89062 1.09375H21.1094C22.014 1.09375 22.75 1.82973 22.75 2.73438V8.29423C22.75 8.59627 22.9948 8.84111 23.2969 8.84111C23.5989 8.84111 23.8438 8.59627 23.8438 8.29423V2.73438C23.8438 1.22664 22.6171 0 21.1094 0H6.89062C5.38289 0 4.15625 1.22664 4.15625 2.73438V25.2656C4.15625 26.7734 5.38289 28 6.89062 28H21.1094C22.6171 28 23.8438 26.7734 23.8438 25.2656V12.6692C23.8438 12.3673 23.5989 12.1224 23.2969 12.1224Z" fill="#F3CD82"/>
<path d="M21.6562 3.28125C21.6562 2.67816 21.1656 2.1875 20.5625 2.1875H7.4375C6.83441 2.1875 6.34375 2.67816 6.34375 3.28125V8.29429C6.34375 8.89738 6.83441 9.38804 7.4375 9.38804H20.5625C21.1656 9.38804 21.6562 8.89738 21.6562 8.29429V3.28125ZM20.5625 8.29429L7.4375 8.295C7.4375 8.295 7.43744 8.29478 7.43744 8.29429V3.28125H20.5624V8.29429H20.5625Z" fill="#F3CD82"/>
<path d="M14 15.9505C12.7938 15.9505 11.8125 16.9318 11.8125 18.138C11.8125 19.3442 12.7938 20.3255 14 20.3255C15.2062 20.3255 16.1875 19.3442 16.1875 18.138C16.1875 16.9318 15.2062 15.9505 14 15.9505ZM14 19.2318C13.3969 19.2318 12.9062 18.7411 12.9062 18.138C12.9062 17.5349 13.3969 17.0443 14 17.0443C14.6031 17.0443 15.0938 17.5349 15.0938 18.138C15.0938 18.7411 14.6031 19.2318 14 19.2318Z" fill="#F3F3F3"/>
<path d="M8.53125 15.9505C7.32506 15.9505 6.34375 16.9318 6.34375 18.138C6.34375 19.3442 7.32506 20.3255 8.53125 20.3255C9.73744 20.3255 10.7188 19.3442 10.7188 18.138C10.7188 16.9318 9.73744 15.9505 8.53125 15.9505ZM8.53125 19.2318C7.92816 19.2318 7.4375 18.7411 7.4375 18.138C7.4375 17.5349 7.92816 17.0443 8.53125 17.0443C9.13434 17.0443 9.625 17.5349 9.625 18.138C9.625 18.7411 9.13434 19.2318 8.53125 19.2318Z" fill="#F3F3F3"/>
<path d="M14 10.4818C12.7938 10.4818 11.8125 11.4631 11.8125 12.6693C11.8125 13.8755 12.7938 14.8568 14 14.8568C15.2062 14.8568 16.1875 13.8755 16.1875 12.6693C16.1875 11.4631 15.2062 10.4818 14 10.4818ZM14 13.763C13.3969 13.763 12.9062 13.2724 12.9062 12.6693C12.9062 12.0662 13.3969 11.5755 14 11.5755C14.6031 11.5755 15.0938 12.0662 15.0938 12.6693C15.0938 13.2724 14.6031 13.763 14 13.763Z" fill="#F3F3F3"/>
<path d="M19.4688 10.4818C18.2626 10.4818 17.2812 11.4631 17.2812 12.6693C17.2812 13.8755 18.2626 14.8568 19.4688 14.8568C20.6749 14.8568 21.6562 13.8755 21.6562 12.6693C21.6562 11.4631 20.6749 10.4818 19.4688 10.4818ZM19.4688 13.763C18.8657 13.763 18.375 13.2724 18.375 12.6693C18.375 12.0662 18.8657 11.5755 19.4688 11.5755C20.0718 11.5755 20.5625 12.0662 20.5625 12.6693C20.5625 13.2724 20.0718 13.763 19.4688 13.763Z" fill="#F3F3F3"/>
<path d="M8.53125 10.4818C7.32506 10.4818 6.34375 11.4631 6.34375 12.6693C6.34375 13.8755 7.32506 14.8568 8.53125 14.8568C9.73744 14.8568 10.7188 13.8755 10.7188 12.6693C10.7188 11.4631 9.73744 10.4818 8.53125 10.4818ZM8.53125 13.763C7.92816 13.763 7.4375 13.2724 7.4375 12.6693C7.4375 12.0662 7.92816 11.5755 8.53125 11.5755C9.13434 11.5755 9.625 12.0662 9.625 12.6693C9.625 13.2724 9.13434 13.763 8.53125 13.763Z" fill="#F3F3F3"/>
<path d="M14 21.4193C12.7938 21.4193 11.8125 22.4006 11.8125 23.6068C11.8125 24.813 12.7938 25.7943 14 25.7943C15.2062 25.7943 16.1875 24.813 16.1875 23.6068C16.1875 22.4006 15.2062 21.4193 14 21.4193ZM14 24.7005C13.3969 24.7005 12.9062 24.2099 12.9062 23.6068C12.9062 23.0037 13.3969 22.513 14 22.513C14.6031 22.513 15.0938 23.0037 15.0938 23.6068C15.0938 24.2099 14.6031 24.7005 14 24.7005Z" fill="#F3F3F3"/>
<path d="M8.53125 21.4193C7.32506 21.4193 6.34375 22.4006 6.34375 23.6068C6.34375 24.813 7.32506 25.7943 8.53125 25.7943C9.73744 25.7943 10.7188 24.813 10.7188 23.6068C10.7188 22.4006 9.73744 21.4193 8.53125 21.4193ZM8.53125 24.7005C7.92816 24.7005 7.4375 24.2099 7.4375 23.6068C7.4375 23.0037 7.92816 22.513 8.53125 22.513C9.13434 22.513 9.625 23.0037 9.625 23.6068C9.625 24.2099 9.13434 24.7005 8.53125 24.7005Z" fill="#F3F3F3"/>
<path d="M14 6.33469C14.302 6.33469 14.5469 6.08984 14.5469 5.78781C14.5469 5.48578 14.302 5.24094 14 5.24094C13.698 5.24094 13.4531 5.48578 13.4531 5.78781C13.4531 6.08984 13.698 6.33469 14 6.33469Z" fill="#F3CD82"/>
<path d="M17.5547 6.33469C17.8567 6.33469 18.1016 6.08984 18.1016 5.78781C18.1016 5.48578 17.8567 5.24094 17.5547 5.24094C17.2527 5.24094 17.0078 5.48578 17.0078 5.78781C17.0078 6.08984 17.2527 6.33469 17.5547 6.33469Z" fill="#F3CD82"/>
<path d="M10.4453 6.33469C10.7473 6.33469 10.9922 6.08984 10.9922 5.78781C10.9922 5.48578 10.7473 5.24094 10.4453 5.24094C10.1433 5.24094 9.89844 5.48578 9.89844 5.78781C9.89844 6.08984 10.1433 6.33469 10.4453 6.33469Z" fill="#F3CD82"/>
<path d="M19.4688 15.9505C18.2626 15.9505 17.2812 16.9318 17.2812 18.138V23.6068C17.2812 24.813 18.2626 25.7943 19.4688 25.7943C20.6749 25.7943 21.6562 24.813 21.6562 23.6068V18.138C21.6562 16.9318 20.6749 15.9505 19.4688 15.9505ZM20.5625 23.6068C20.5625 24.2099 20.0718 24.7005 19.4688 24.7005C18.8657 24.7005 18.375 24.2099 18.375 23.6068V18.138C18.375 17.5349 18.8657 17.0443 19.4688 17.0443C20.0718 17.0443 20.5625 17.5349 20.5625 18.138V23.6068Z" fill="#F3CD82"/>
<path d="M23.2969 11.0287C23.5989 11.0287 23.8438 10.7838 23.8438 10.4818C23.8438 10.1798 23.5989 9.93491 23.2969 9.93491C22.9948 9.93491 22.75 10.1798 22.75 10.4818C22.75 10.7838 22.9948 11.0287 23.2969 11.0287Z" fill="#F3CD82"/>
</svg>
