<svg width="17" height="16" viewBox="0 0 17 16" fill="none" xmlns="http://www.w3.org/2000/svg">
<rect x="1.61649" y="1" width="13.6933" height="14" stroke="url(#paint0_linear)" stroke-width="2"/>
<g clip-path="url(#clip0)">
<path d="M13.959 5.42635L7.75867 11.6266C7.70406 11.6812 7.61563 11.6812 7.56114 11.6266L4.04062 8.10598C3.98613 8.05162 3.98613 7.9632 4.04062 7.90858L4.89606 7.05314C4.95067 6.99866 5.0391 6.99866 5.09359 7.05314L7.66004 9.61946L12.9061 4.37338C12.9609 4.3189 13.049 4.3189 13.1036 4.37338L13.959 5.22882C14.0136 5.28331 14.0136 5.37161 13.959 5.42635Z" fill="url(#paint1_linear)"/>
</g>
<defs>
<linearGradient id="paint0_linear" x1="8.46313" y1="0" x2="8.46313" y2="16" gradientUnits="userSpaceOnUse">
<stop stop-color="#F5D89F"/>
<stop offset="1" stop-color="#DDB15C"/>
</linearGradient>
<linearGradient id="paint1_linear" x1="8.99984" y1="4.33252" x2="8.99984" y2="11.6676" gradientUnits="userSpaceOnUse">
<stop stop-color="#F5D89F"/>
<stop offset="1" stop-color="#DDB15C"/>
</linearGradient>
<clipPath id="clip0">
<rect width="10" height="10" fill="white" transform="translate(4 3)"/>
</clipPath>
</defs>
</svg>
