<svg width="16" height="16" viewBox="0 0 16 16" fill="none" xmlns="http://www.w3.org/2000/svg">
<path d="M14.8326 2.35711C14.0435 1.46168 12.9487 0.968552 11.75 0.968552C10.0641 0.968552 8.99678 1.97543 8.39828 2.82011C8.243 3.0393 8.11091 3.25908 8 3.4659C7.88909 3.25908 7.75703 3.0393 7.60172 2.82011C7.00322 1.97543 5.93587 0.968552 4.25 0.968552C3.05131 0.968552 1.95653 1.46171 1.16734 2.35715C0.414594 3.21133 0 4.35533 0 5.5784C0 6.90974 0.519781 8.14802 1.63578 9.47527C2.63319 10.6615 4.06809 11.8843 5.72969 13.3002C6.34884 13.8278 6.98912 14.3734 7.67078 14.9698L7.69125 14.9878C7.77962 15.0651 7.88981 15.1038 8 15.1038C8.11019 15.1038 8.22038 15.0651 8.30875 14.9878L8.32922 14.9698C9.01087 14.3734 9.65116 13.8278 10.2704 13.3001C11.9319 11.8843 13.3668 10.6616 14.3642 9.47527C15.4802 8.14799 16 6.90974 16 5.5784C16 4.35533 15.5854 3.21133 14.8326 2.35711ZM9.66228 12.5866C9.12853 13.0414 8.57922 13.5095 8 14.0131C7.42081 13.5096 6.87147 13.0415 6.33763 12.5866C3.08578 9.81552 0.9375 7.98486 0.9375 5.5784C0.9375 4.58371 1.26891 3.65983 1.87069 2.97699C2.47937 2.2864 3.32434 1.90605 4.25 1.90605C5.53528 1.90605 6.36613 2.69786 6.83675 3.36211C7.25891 3.95786 7.47919 4.55843 7.55431 4.78896C7.61716 4.98193 7.79706 5.11252 8 5.11252C8.20294 5.11252 8.38284 4.98193 8.44569 4.78896C8.52081 4.55843 8.74109 3.95786 9.16325 3.36208C9.63387 2.69786 10.4647 1.90605 11.75 1.90605C12.6757 1.90605 13.5206 2.2864 14.1293 2.97699C14.7311 3.65983 15.0625 4.58371 15.0625 5.5784C15.0625 7.98486 12.9142 9.81552 9.66228 12.5866Z" fill="#F3F3F3"/>
</svg>
