<svg width="16" height="16" viewBox="0 0 16 16" fill="none" xmlns="http://www.w3.org/2000/svg">
<path d="M3.16667 16H12.8333C14.5793 16 16 14.5793 16 12.8333V3.16667C16 1.42067 14.5793 0 12.8333 0H3.16667C1.42067 0 0 1.42067 0 3.16667V12.8333C0 14.5793 1.42067 16 3.16667 16ZM1 3.16667C1 1.972 1.972 1 3.16667 1H12.8333C14.028 1 15 1.972 15 3.16667V12.8333C15 14.028 14.028 15 12.8333 15H3.16667C1.972 15 1 14.028 1 12.8333V3.16667Z" fill="white"/>
<path d="M8 12C10.2055 12 12 10.2055 12 8C12 5.79445 10.2055 4 8 4C5.79445 4 4 5.79445 4 8C4 10.2055 5.79445 12 8 12ZM8 4.97879C9.66591 4.97879 11.0212 6.33409 11.0212 8C11.0212 9.66591 9.66591 11.0212 8 11.0212C6.33409 11.0212 4.97879 9.66591 4.97879 8C4.97879 6.33409 6.33409 4.97879 8 4.97879Z" fill="#F3F3F3"/>
<path d="M11.9997 5C12.5701 5 13 4.57002 13 4C13 3.40558 12.5476 3 12.0003 3C11.4299 3 11 3.42998 11 4C11 4.59326 11.4501 5 11.9997 5ZM12.1021 3.90413C12.2849 4.06624 11.8678 4.26322 11.8678 4.00058C11.8678 3.8437 12.0801 3.88437 12.1021 3.90413Z" fill="white"/>
</svg>
