<svg width="19" height="19" viewBox="0 0 19 19" fill="none" xmlns="http://www.w3.org/2000/svg">
<path d="M14.5469 10.3907C14.6256 10.3907 14.7011 10.3594 14.7568 10.3037C14.8125 10.248 14.8438 10.1725 14.8438 10.0938V9.50005C14.8438 9.42131 14.8125 9.3458 14.7568 9.29012C14.7011 9.23445 14.6256 9.20317 14.5469 9.20317C14.4681 9.20317 14.3926 9.23445 14.337 9.29012C14.2813 9.3458 14.25 9.42131 14.25 9.50005V10.0938C14.25 10.1725 14.2813 10.248 14.337 10.3037C14.3926 10.3594 14.4681 10.3907 14.5469 10.3907Z" fill="#2D2D2D"/>
<path d="M14.5469 12.1719C14.4681 12.1719 14.3926 12.2032 14.337 12.2589C14.2813 12.3145 14.25 12.3901 14.25 12.4688V13.0625C14.25 13.1413 14.2813 13.2168 14.337 13.2725C14.3926 13.3281 14.4681 13.3594 14.5469 13.3594C14.6256 13.3594 14.7011 13.3281 14.7568 13.2725C14.8125 13.2168 14.8438 13.1413 14.8438 13.0625V12.4688C14.8438 12.3901 14.8125 12.3145 14.7568 12.2589C14.7011 12.2032 14.6256 12.1719 14.5469 12.1719Z" fill="#2D2D2D"/>
<path d="M13.5694 17.4286C13.6891 17.4861 13.8203 17.5158 13.9531 17.5157H17.5156C17.7518 17.5154 17.9781 17.4215 18.1451 17.2545C18.3121 17.0876 18.406 16.8612 18.4062 16.625V8.9063C18.406 8.67017 18.3121 8.44379 18.1451 8.27682C17.9781 8.10985 17.7518 8.01594 17.5156 8.01567H13.9531C13.717 8.01594 13.4906 8.10985 13.3237 8.27682C13.1567 8.44379 13.0628 8.67017 13.0625 8.9063V10.3907H12.4688V9.79692C12.4688 9.71818 12.4375 9.64267 12.3818 9.587C12.3261 9.53132 12.2506 9.50005 12.1719 9.50005H10.3906C10.3119 9.50005 10.2364 9.53132 10.1807 9.587C10.125 9.64267 10.0938 9.71818 10.0938 9.79692V10.3907H9.5V9.79692C9.50005 9.75787 9.49237 9.7192 9.4774 9.68313C9.46243 9.64706 9.44047 9.61431 9.41279 9.58677C9.47024 9.46705 9.50004 9.33596 9.5 9.20317H10.0938C10.1725 9.20317 10.248 9.17189 10.3037 9.11622C10.3593 9.06054 10.3906 8.98503 10.3906 8.9063C10.3906 8.82756 10.3593 8.75205 10.3037 8.69637C10.248 8.6407 10.1725 8.60942 10.0938 8.60942H9.5C9.5 8.53068 9.46872 8.45517 9.41305 8.3995C9.35737 8.34382 9.28186 8.31255 9.20312 8.31255H7.42188C7.34314 8.31255 7.26763 8.34382 7.21195 8.3995C7.15628 8.45517 7.125 8.53068 7.125 8.60942V9.20254C7.12486 9.33554 7.15466 9.46686 7.21221 9.58677C7.18453 9.61431 7.16257 9.64706 7.1476 9.68313C7.13263 9.7192 7.12495 9.75787 7.125 9.79692V10.3907H5.64062V9.79692H5.9375C6.01624 9.79692 6.09175 9.76564 6.14742 9.70997C6.2031 9.65429 6.23438 9.57878 6.23438 9.50005C6.23438 9.42131 6.2031 9.3458 6.14742 9.29012C6.09175 9.23445 6.01624 9.20317 5.9375 9.20317H5.64062V8.9063C5.64062 8.67009 5.54679 8.44355 5.37977 8.27653C5.21274 8.1095 4.98621 8.01567 4.75 8.01567C4.51379 8.01567 4.28726 8.1095 4.12023 8.27653C3.95321 8.44355 3.85938 8.67009 3.85938 8.9063V9.50005C3.85938 9.57878 3.89065 9.65429 3.94633 9.70997C4.002 9.76564 4.07751 9.79692 4.15625 9.79692C4.23499 9.79692 4.3105 9.76564 4.36617 9.70997C4.42185 9.65429 4.45312 9.57878 4.45312 9.50005V8.9063C4.45312 8.82756 4.4844 8.75205 4.54008 8.69637C4.59575 8.6407 4.67126 8.60942 4.75 8.60942C4.82874 8.60942 4.90425 8.6407 4.95992 8.69637C5.0156 8.75205 5.04688 8.82756 5.04688 8.9063V10.3907H2.67188V9.79692C2.67188 9.56071 2.57804 9.33418 2.41102 9.16715C2.24399 9.00013 2.01746 8.9063 1.78125 8.9063C1.54504 8.9063 1.31851 9.00013 1.15148 9.16715C0.984458 9.33418 0.890625 9.56071 0.890625 9.79692V10.3907C0.811889 10.3907 0.736378 10.4219 0.680703 10.4776C0.625028 10.5333 0.59375 10.6088 0.59375 10.6875V17.2188C0.59375 17.2975 0.625028 17.373 0.680703 17.4287C0.736378 17.4844 0.811889 17.5157 0.890625 17.5157H13.3594C13.3984 17.5157 13.437 17.5081 13.4731 17.4931C13.5091 17.4782 13.5418 17.4563 13.5694 17.4286ZM17.5156 16.9219H13.9531C13.8744 16.9218 13.799 16.8905 13.7433 16.8349C13.6876 16.7792 13.6563 16.7038 13.6562 16.625V11.5782H17.8125V16.625C17.8124 16.7038 17.7811 16.7792 17.7255 16.8349C17.6698 16.8905 17.5943 16.9218 17.5156 16.9219ZM13.6562 8.9063C13.6563 8.82759 13.6876 8.75213 13.7433 8.69647C13.799 8.64082 13.8744 8.60951 13.9531 8.60942H17.5156C17.5943 8.60951 17.6698 8.64082 17.7255 8.69647C17.7811 8.75213 17.8124 8.82759 17.8125 8.9063V10.9844H13.6562V8.9063ZM11.875 10.9844V12.1719H7.71875V10.9844H11.875ZM7.71875 12.7657H11.875V15.7344H7.71875V12.7657ZM10.6875 10.0938H11.875V10.3907H10.6875V10.0938ZM7.71875 10.3907V10.0938H8.90625V10.3907H7.71875ZM7.71875 8.9063H8.90625V9.20254C8.90616 9.28142 8.87479 9.35704 8.81901 9.41281C8.76324 9.46858 8.68762 9.49996 8.60874 9.50005H8.01626C7.93738 9.49996 7.86176 9.46858 7.80598 9.41281C7.75021 9.35704 7.71884 9.28142 7.71875 9.20254V8.9063ZM1.48438 9.79692C1.48438 9.71818 1.51565 9.64267 1.57133 9.587C1.627 9.53132 1.70251 9.50005 1.78125 9.50005C1.85999 9.50005 1.9355 9.53132 1.99117 9.587C2.04685 9.64267 2.07812 9.71818 2.07812 9.79692V10.3907H1.48438V9.79692ZM13.0625 16.9219H1.1875V10.9844H7.125V16.0313C7.125 16.11 7.15628 16.1855 7.21195 16.2412C7.26763 16.2969 7.34314 16.3282 7.42188 16.3282H12.1719C12.2506 16.3282 12.3261 16.2969 12.3818 16.2412C12.4375 16.1855 12.4688 16.11 12.4688 16.0313V10.9844H13.0625V16.9219Z" fill="#2D2D2D"/>
<path d="M10.3906 13.3594H9.20312C9.12439 13.3594 9.04888 13.3907 8.9932 13.4464C8.93753 13.502 8.90625 13.5776 8.90625 13.6563C8.90625 13.735 8.93753 13.8105 8.9932 13.8662C9.04888 13.9219 9.12439 13.9532 9.20312 13.9532H10.3906C10.4694 13.9532 10.5449 13.9219 10.6005 13.8662C10.6562 13.8105 10.6875 13.735 10.6875 13.6563C10.6875 13.5776 10.6562 13.502 10.6005 13.4464C10.5449 13.3907 10.4694 13.3594 10.3906 13.3594Z" fill="#2D2D2D"/>
<path d="M6.23438 13.9532H2.07812C1.99939 13.9532 1.92388 13.9844 1.8682 14.0401C1.81253 14.0958 1.78125 14.1713 1.78125 14.25V16.0313C1.78125 16.11 1.81253 16.1855 1.8682 16.2412C1.92388 16.2969 1.99939 16.3282 2.07812 16.3282H6.23438C6.31311 16.3282 6.38862 16.2969 6.4443 16.2412C6.49997 16.1855 6.53125 16.11 6.53125 16.0313V14.25C6.53125 14.1713 6.49997 14.0958 6.4443 14.0401C6.38862 13.9844 6.31311 13.9532 6.23438 13.9532ZM5.9375 15.7344H2.375V14.5469H5.9375V15.7344Z" fill="#2D2D2D"/>
<path d="M6.23438 11.5782H2.07812C1.99939 11.5782 1.92388 11.6094 1.8682 11.6651C1.81253 11.7208 1.78125 11.7963 1.78125 11.875V13.0625C1.78125 13.1413 1.81253 13.2168 1.8682 13.2725C1.92388 13.3281 1.99939 13.3594 2.07812 13.3594H6.23438C6.31311 13.3594 6.38862 13.3281 6.4443 13.2725C6.49997 13.2168 6.53125 13.1413 6.53125 13.0625V11.875C6.53125 11.7963 6.49997 11.7208 6.4443 11.6651C6.38862 11.6094 6.31311 11.5782 6.23438 11.5782ZM5.9375 12.7657H2.375V12.1719H5.9375V12.7657Z" fill="#2D2D2D"/>
<path d="M11.875 3.85942C11.9537 3.85942 12.0292 3.82814 12.0849 3.77247C12.1406 3.71679 12.1719 3.64128 12.1719 3.56255V2.9688C12.1719 2.89006 12.1406 2.81455 12.0849 2.75887C12.0292 2.7032 11.9537 2.67192 11.875 2.67192C11.7963 2.67192 11.7208 2.7032 11.6651 2.75887C11.6094 2.81455 11.5781 2.89006 11.5781 2.9688V3.56255C11.5781 3.64128 11.6094 3.71679 11.6651 3.77247C11.7208 3.82814 11.7963 3.85942 11.875 3.85942Z" fill="#2D2D2D"/>
<path d="M15.4375 3.85942C15.5162 3.85942 15.5917 3.82814 15.6474 3.77247C15.7031 3.71679 15.7344 3.64128 15.7344 3.56255V2.9688C15.7344 2.89006 15.7031 2.81455 15.6474 2.75887C15.5917 2.7032 15.5162 2.67192 15.4375 2.67192C15.3588 2.67192 15.2833 2.7032 15.2276 2.75887C15.1719 2.81455 15.1406 2.89006 15.1406 2.9688V3.56255C15.1406 3.64128 15.1719 3.71679 15.2276 3.77247C15.2833 3.82814 15.3588 3.85942 15.4375 3.85942Z" fill="#2D2D2D"/>
<path d="M0.890625 3.26567H3.5625V4.45317H3.26562C3.2105 4.45317 3.15646 4.46853 3.10956 4.49751C3.06266 4.52649 3.02476 4.56796 3.00011 4.61727L2.10948 6.39852C2.08685 6.44378 2.07616 6.49407 2.07843 6.54463C2.08071 6.59518 2.09586 6.64432 2.12247 6.68736C2.14907 6.73041 2.18624 6.76594 2.23043 6.79059C2.27463 6.81523 2.3244 6.82817 2.375 6.82817H5.34375C5.39435 6.82817 5.44412 6.81523 5.48832 6.79059C5.53252 6.76594 5.56968 6.73041 5.59628 6.68736C5.62289 6.64432 5.63804 6.59518 5.64032 6.54463C5.64259 6.49407 5.6319 6.44378 5.60927 6.39852L4.71864 4.61727C4.69399 4.56796 4.65609 4.52649 4.60919 4.49751C4.56229 4.46853 4.50825 4.45317 4.45312 4.45317H4.15625V3.26567H8.01562V4.45317H7.71875C7.66362 4.45317 7.60958 4.46853 7.56268 4.49751C7.51579 4.52649 7.47789 4.56796 7.45323 4.61727L6.56261 6.39852C6.53997 6.44378 6.52929 6.49407 6.53156 6.54463C6.53383 6.59518 6.54899 6.64432 6.57559 6.68736C6.6022 6.73041 6.63936 6.76594 6.68356 6.79059C6.72776 6.81523 6.77752 6.82817 6.82812 6.82817H9.79688C9.84748 6.82817 9.89724 6.81523 9.94144 6.79059C9.98564 6.76594 10.0228 6.73041 10.0494 6.68736C10.076 6.64432 10.0912 6.59518 10.0934 6.54463C10.0957 6.49407 10.085 6.44378 10.0624 6.39852L9.17177 4.61727C9.14711 4.56796 9.10921 4.52649 9.06231 4.49751C9.01542 4.46853 8.96138 4.45317 8.90625 4.45317H8.60938V3.26567H10.6875V5.64067C10.6875 5.71941 10.7188 5.79492 10.7745 5.85059C10.8301 5.90627 10.9056 5.93755 10.9844 5.93755H18.1094C18.1881 5.93755 18.2636 5.90627 18.3193 5.85059C18.375 5.79492 18.4062 5.71941 18.4062 5.64067V1.7813C18.4062 1.70256 18.375 1.62705 18.3193 1.57137C18.2636 1.5157 18.1881 1.48442 18.1094 1.48442H0.890625C0.811889 1.48442 0.736378 1.5157 0.680703 1.57137C0.625028 1.62705 0.59375 1.70256 0.59375 1.7813V2.9688C0.59375 3.04753 0.625028 3.12304 0.680703 3.17872C0.736378 3.23439 0.811889 3.26567 0.890625 3.26567ZM4.86341 6.23442H2.85534L3.44909 5.04692H4.26966L4.86341 6.23442ZM9.31653 6.23442H7.30847L7.90222 5.04692H8.72278L9.31653 6.23442ZM11.2812 2.07817H13.9531V4.45317H11.2812V2.07817ZM17.8125 5.3438H11.2812V5.04692H17.8125V5.3438ZM17.8125 4.45317H14.5469V2.07817H17.8125V4.45317ZM1.1875 2.07817H10.6875V2.67192H1.1875V2.07817Z" fill="#2D2D2D"/>
<path d="M8.60938 11.875C8.77333 11.875 8.90625 11.7421 8.90625 11.5782C8.90625 11.4142 8.77333 11.2813 8.60938 11.2813C8.44542 11.2813 8.3125 11.4142 8.3125 11.5782C8.3125 11.7421 8.44542 11.875 8.60938 11.875Z" fill="#2D2D2D"/>
<path d="M9.79688 11.875C9.96083 11.875 10.0938 11.7421 10.0938 11.5782C10.0938 11.4142 9.96083 11.2813 9.79688 11.2813C9.63292 11.2813 9.5 11.4142 9.5 11.5782C9.5 11.7421 9.63292 11.875 9.79688 11.875Z" fill="#2D2D2D"/>
<path d="M10.9844 11.875C11.1483 11.875 11.2812 11.7421 11.2812 11.5782C11.2812 11.4142 11.1483 11.2813 10.9844 11.2813C10.8204 11.2813 10.6875 11.4142 10.6875 11.5782C10.6875 11.7421 10.8204 11.875 10.9844 11.875Z" fill="#2D2D2D"/>
</svg>
