<svg width="31" height="31" viewBox="0 0 31 31" fill="none" xmlns="http://www.w3.org/2000/svg">
<g clip-path="url(#clip0)">
<path d="M9.36095 8.25426C9.54382 8.21311 9.69006 8.07615 9.74309 7.89637C9.79611 7.71659 9.74761 7.52219 9.61635 7.38838C9.48509 7.25458 9.29165 7.20236 9.11089 7.25193C4.96786 8.2828 2.06147 12.0056 2.06665 16.275C2.06665 16.5603 2.29797 16.7917 2.58332 16.7917C2.86867 16.7917 3.09999 16.5603 3.09999 16.275C3.09541 12.4802 5.67853 9.17102 9.36095 8.25426Z" fill="#F3CD82"/>
<path d="M29.45 19.375H22.7333V16.275C22.7375 13.9753 22.0388 11.7293 20.7307 9.83785L21.0113 6.3426C21.0519 5.83863 20.8442 5.34651 20.4548 5.02406C18.9612 3.80837 17.2369 2.90779 15.3858 2.37666C14.857 2.23092 14.2907 2.37778 13.8994 2.7621L11.6736 4.92331C11.5733 4.92073 11.47 4.90833 11.3667 4.90833C5.09197 4.91545 0.00710294 10.0003 -1.52588e-05 16.275V25.575C0.00169355 27.2864 1.38861 28.6733 3.09998 28.675H19.1167C20.9129 28.6729 22.4354 27.3528 22.692 25.575H27.3833V27.125C27.3833 27.981 28.0773 28.675 28.9333 28.675H29.45C30.306 28.675 31 27.981 31 27.125V20.925C31 20.069 30.306 19.375 29.45 19.375ZM14.6217 3.4999C14.7471 3.37317 14.9308 3.3233 15.1032 3.36918C16.8189 3.86236 18.4172 4.6975 19.8018 5.82438C19.9287 5.93273 19.9955 6.09573 19.981 6.262L19.7883 8.66036C19.6602 8.51931 19.5398 8.37258 19.4044 8.23721C17.6823 6.51145 15.447 5.39055 13.0339 5.04266L14.6217 3.4999ZM6.19998 27.6417H3.09998C1.9586 27.6417 1.03332 26.7164 1.03332 25.575V20.925C1.03332 20.6396 1.26464 20.4083 1.54998 20.4083H1.9473C2.13608 20.4084 2.3098 20.5114 2.40042 20.677C3.44216 22.6162 5.0281 24.2087 6.9631 25.2583C7.1298 25.3472 7.23375 25.5209 7.23332 25.7098V27.125C7.23332 27.4103 7.002 27.6417 6.71665 27.6417H6.19998ZM21.7 25.0583C21.6983 26.4844 20.5427 27.64 19.1167 27.6417H8.17158C8.23278 27.4762 8.26494 27.3014 8.26665 27.125V25.7098C8.26947 25.1332 7.94845 24.6038 7.43585 24.3396C5.69044 23.3761 4.25754 21.9328 3.30665 20.1805C3.03467 19.6838 2.51353 19.375 1.9473 19.375H1.54998C1.37357 19.3767 1.19878 19.4089 1.03332 19.4701V16.275C1.03332 10.5681 5.65971 5.94166 11.3667 5.94166C17.0736 5.94166 21.7 10.5681 21.7 16.275V25.0583ZM22.7333 24.5417V20.4083H24.2833V21.4417C24.2833 21.727 24.5146 21.9583 24.8 21.9583C25.0853 21.9583 25.3167 21.727 25.3167 21.4417V20.4083H27.3833V24.5417H22.7333ZM29.9667 27.125C29.9667 27.4103 29.7353 27.6417 29.45 27.6417H28.9333C28.648 27.6417 28.4167 27.4103 28.4167 27.125V20.4083H29.45C29.7353 20.4083 29.9667 20.6396 29.9667 20.925V27.125Z" fill="#F3CD82"/>
<path d="M11.3667 8.00831C11.652 8.00831 11.8833 7.77699 11.8833 7.49164C11.8833 7.2063 11.652 6.97498 11.3667 6.97498C11.0813 6.97498 10.85 7.2063 10.85 7.49164C10.85 7.77699 11.0813 8.00831 11.3667 8.00831Z" fill="#F3CD82"/>
<path d="M16.5333 24.5417C16.5333 25.6831 17.4586 26.6083 18.6 26.6083C19.7414 26.6083 20.6667 25.6831 20.6667 24.5417C20.6667 23.4003 19.7414 22.475 18.6 22.475C17.4586 22.475 16.5333 23.4003 16.5333 24.5417ZM19.6333 24.5417C19.6333 25.1124 19.1707 25.575 18.6 25.575C18.0293 25.575 17.5667 25.1124 17.5667 24.5417C17.5667 23.971 18.0293 23.5083 18.6 23.5083C19.1707 23.5083 19.6333 23.971 19.6333 24.5417Z" fill="white"/>
<path d="M11.3666 11.1083C8.22783 11.1083 5.68332 13.6529 5.68332 16.7917C5.68332 19.9305 8.22783 22.475 11.3666 22.475C14.5055 22.475 17.05 19.9305 17.05 16.7917C17.0463 13.6544 14.5039 11.112 11.3666 11.1083ZM11.3666 21.4417C8.79853 21.4417 6.71665 19.3598 6.71665 16.7917C6.71665 14.2235 8.79853 12.1417 11.3666 12.1417C13.9348 12.1417 16.0167 14.2235 16.0167 16.7917C16.0138 19.3586 13.9336 21.4388 11.3666 21.4417Z" fill="#F3F3F3"/>
</g>
<defs>
<clipPath id="clip0">
<rect width="31" height="31" fill="white"/>
</clipPath>
</defs>
</svg>
