<svg width="13" height="13" viewBox="0 0 13 13" fill="none" xmlns="http://www.w3.org/2000/svg">
<g clip-path="url(#clip0)">
<path d="M9.88338 8.59977C9.45867 8.18046 8.92845 8.18046 8.50645 8.59977C8.18453 8.91898 7.86261 9.23819 7.54611 9.56281C7.45954 9.65208 7.3865 9.67102 7.281 9.6115C7.0727 9.49788 6.85088 9.40591 6.65069 9.28147C5.71741 8.69445 4.93561 7.9397 4.24309 7.09028C3.89953 6.66827 3.59384 6.21651 3.38013 5.70793C3.33685 5.60514 3.34497 5.53751 3.42883 5.45365C3.75074 5.14255 4.06454 4.82334 4.38105 4.50413C4.82199 4.06048 4.82199 3.54108 4.37834 3.09473C4.12676 2.84044 3.87518 2.59157 3.6236 2.33728C3.3639 2.07758 3.10691 1.81518 2.84451 1.55819C2.4198 1.1443 1.88958 1.1443 1.46757 1.56089C1.14295 1.88011 0.831856 2.20743 0.501824 2.52123C0.196139 2.81069 0.0419443 3.16507 0.00948215 3.57896C-0.0419162 4.25255 0.1231 4.88826 0.355745 5.50775C0.831856 6.79 1.55684 7.92888 2.43603 8.97308C3.6236 10.3852 5.04111 11.5024 6.69939 12.3086C7.44602 12.6711 8.2197 12.9497 9.06101 12.9957C9.63991 13.0281 10.1431 12.8821 10.5461 12.4303C10.8221 12.1219 11.1332 11.8406 11.4253 11.5457C11.8582 11.1075 11.8609 10.5773 11.4307 10.1444C10.9168 9.62773 10.4001 9.11375 9.88338 8.59977Z" fill="url(#paint0_linear)"/>
<path d="M9.36668 6.44375L10.3649 6.27332C10.208 5.35626 9.77516 4.52578 9.1178 3.86571C8.42257 3.17048 7.54339 2.73224 6.57493 2.59698L6.43427 3.60061C7.1836 3.70611 7.8653 4.04425 8.40363 4.58258C8.91221 5.09116 9.24494 5.73499 9.36668 6.44375Z" fill="url(#paint1_linear)"/>
<path d="M10.9277 2.10463C9.7753 0.952222 8.31721 0.22453 6.70762 0L6.56696 1.00362C7.95742 1.19839 9.21803 1.8287 10.2135 2.8215C11.1576 3.76561 11.7771 4.95859 12.0017 6.2706L12.9999 6.10017C12.7375 4.57986 12.0206 3.20022 10.9277 2.10463Z" fill="url(#paint2_linear)"/>
</g>
<defs>
<linearGradient id="paint0_linear" x1="5.87586" y1="1.24811" x2="5.87586" y2="13" gradientUnits="userSpaceOnUse">
<stop stop-color="#F5D89F"/>
<stop offset="1" stop-color="#DDB15C"/>
</linearGradient>
<linearGradient id="paint1_linear" x1="8.39958" y1="2.59698" x2="8.39958" y2="6.44375" gradientUnits="userSpaceOnUse">
<stop stop-color="#F5D89F"/>
<stop offset="1" stop-color="#DDB15C"/>
</linearGradient>
<linearGradient id="paint2_linear" x1="9.78341" y1="0" x2="9.78341" y2="6.2706" gradientUnits="userSpaceOnUse">
<stop stop-color="#F5D89F"/>
<stop offset="1" stop-color="#DDB15C"/>
</linearGradient>
<clipPath id="clip0">
<rect width="13" height="13" fill="white"/>
</clipPath>
</defs>
</svg>
