<svg width="24" height="24" viewBox="0 0 24 24" fill="none" xmlns="http://www.w3.org/2000/svg">
<circle cx="12" cy="12" r="11.5" stroke="url(#paint0_linear)"/>
<g clip-path="url(#clip0)">
<path d="M18.4718 13.6832C18.9193 9.9163 18.2568 7.53817 17.0618 6.46255L17.0624 6.46192C15.1337 4.62505 8.61993 4.35317 6.31243 6.54442C5.27618 7.6163 4.91118 9.18942 4.87118 11.1369C4.83118 13.085 4.78368 16.7344 8.1843 17.7244H8.18743L8.1843 19.2363C8.1843 19.2363 8.16118 19.8488 8.55243 19.9719C8.99993 20.1169 9.20243 19.8325 10.5943 18.17C12.9218 18.3719 14.7093 17.9094 14.9124 17.8419C15.3824 17.6844 18.0418 17.3325 18.4718 13.6832ZM10.8237 17.1063C10.8237 17.1063 9.35055 18.9432 8.89243 19.42C8.74243 19.575 8.57805 19.5607 8.58055 19.2532C8.58055 19.0513 8.5918 16.7432 8.5918 16.7432C5.70868 15.9169 5.87868 12.8094 5.90993 11.1838C5.94118 9.55755 6.23868 8.22567 7.11618 7.3288C9.14055 5.43067 14.8512 5.85505 16.3062 7.22255C18.0849 8.79942 17.4518 13.2544 17.4556 13.4063C17.0899 16.4525 14.9349 16.6457 14.5387 16.7775C14.3693 16.8338 12.7974 17.2382 10.8237 17.1063Z" fill="url(#paint1_linear)"/>
<path d="M11.6388 7.68567C11.3981 7.68567 11.3981 8.06067 11.6388 8.06379C13.5056 8.07817 15.0431 9.37942 15.06 11.7663C15.06 12.0182 15.4288 12.015 15.4256 11.7632H15.425C15.405 9.19129 13.7263 7.70004 11.6388 7.68567Z" fill="url(#paint2_linear)"/>
<path d="M14.0943 11.3706C14.0887 11.6194 14.4568 11.6312 14.46 11.3794C14.4906 9.96124 13.6162 8.79312 11.9731 8.66999C11.7325 8.65249 11.7075 9.03062 11.9475 9.04812C13.3725 9.15624 14.1231 10.1287 14.0943 11.3706Z" fill="url(#paint3_linear)"/>
<path d="M13.7008 12.9838C13.392 12.8051 13.0776 12.9163 12.9476 13.0919L12.6758 13.4438C12.5376 13.6226 12.2795 13.5988 12.2795 13.5988C10.3958 13.1007 9.89201 11.1294 9.89201 11.1294C9.89201 11.1294 9.86888 10.8626 10.0414 10.7194L10.3814 10.4382C10.5514 10.3032 10.6589 9.97819 10.4858 9.65881C10.0233 8.82319 9.71263 8.53506 9.55451 8.31381C9.38826 8.10569 9.13826 8.05881 8.87826 8.19944H8.87263C8.33201 8.51569 7.74013 9.10756 7.92951 9.71694C8.25263 10.3594 8.84638 12.4076 10.7389 13.9551C11.6283 14.6869 13.0358 15.4369 13.6333 15.6101L13.6389 15.6188C14.2276 15.8151 14.8001 15.2001 15.1058 14.6432V14.6388C15.2414 14.3694 15.1964 14.1144 14.9983 13.9476C14.647 13.6051 14.117 13.2269 13.7008 12.9838Z" fill="url(#paint4_linear)"/>
<path d="M12.2305 10.065C12.8312 10.1 13.1224 10.4138 13.1537 11.0581C13.1649 11.31 13.5305 11.2925 13.5193 11.0406C13.4793 10.1994 13.0405 9.73064 12.2505 9.68689C12.0099 9.67252 11.9874 10.0506 12.2305 10.065Z" fill="url(#paint5_linear)"/>
</g>
<defs>
<linearGradient id="paint0_linear" x1="8.75676" y1="24" x2="15.2432" y2="0.648648" gradientUnits="userSpaceOnUse">
<stop stop-color="#79279F"/>
<stop offset="1" stop-color="#B096FA"/>
</linearGradient>
<linearGradient id="paint1_linear" x1="11.7373" y1="4.99179" x2="11.7373" y2="20.005" gradientUnits="userSpaceOnUse">
<stop stop-color="#AE93E5"/>
<stop offset="1" stop-color="#7F34AA"/>
</linearGradient>
<linearGradient id="paint2_linear" x1="13.442" y1="7.68567" x2="13.442" y2="11.9536" gradientUnits="userSpaceOnUse">
<stop stop-color="#AE93E5"/>
<stop offset="1" stop-color="#7F34AA"/>
</linearGradient>
<linearGradient id="paint3_linear" x1="13.1201" y1="8.6694" x2="13.1201" y2="11.5628" gradientUnits="userSpaceOnUse">
<stop stop-color="#AE93E5"/>
<stop offset="1" stop-color="#7F34AA"/>
</linearGradient>
<linearGradient id="paint4_linear" x1="11.5385" y1="8.1189" x2="11.5385" y2="15.6561" gradientUnits="userSpaceOnUse">
<stop stop-color="#AE93E5"/>
<stop offset="1" stop-color="#7F34AA"/>
</linearGradient>
<linearGradient id="paint5_linear" x1="12.7892" y1="9.68649" x2="12.7892" y2="11.2385" gradientUnits="userSpaceOnUse">
<stop stop-color="#AE93E5"/>
<stop offset="1" stop-color="#7F34AA"/>
</linearGradient>
<clipPath id="clip0">
<rect width="15" height="15" fill="white" transform="translate(4 5)"/>
</clipPath>
</defs>
</svg>
