<svg width="23" height="23" viewBox="0 0 23 23" fill="none" xmlns="http://www.w3.org/2000/svg">
<circle cx="11.5" cy="11.5" r="11" stroke="url(#paint0_linear)"/>
<path fill-rule="evenodd" clip-rule="evenodd" d="M15.8878 6.66527C14.7236 5.50527 13.1753 4.86616 11.5258 4.86548C8.12692 4.86548 5.36071 7.61838 5.35934 11.0019C5.35889 12.0835 5.6428 13.1394 6.18245 14.07L5.30762 17.2501L8.57656 16.3967C9.47729 16.8857 10.4913 17.1434 11.5233 17.1437H11.5259C14.9244 17.1437 17.6909 14.3905 17.6922 11.0068C17.6929 9.367 17.0521 7.82519 15.8878 6.66527ZM11.5258 16.1073H11.5237C10.6041 16.1069 9.70211 15.8609 8.91509 15.3963L8.72801 15.2857L6.78817 15.7921L7.30594 13.9099L7.18404 13.7169C6.67098 12.9047 6.40005 11.9661 6.40051 11.0023C6.40157 8.18999 8.70082 5.90196 11.5279 5.90196C12.8969 5.90242 14.1837 6.43366 15.1514 7.39781C16.119 8.36196 16.6516 9.6435 16.6511 11.0065C16.6499 13.819 14.3508 16.1073 11.5258 16.1073ZM14.3372 12.287C14.1831 12.2102 13.4256 11.8394 13.2843 11.7881C13.1432 11.737 13.0403 11.7115 12.9377 11.8649C12.835 12.0184 12.5397 12.3638 12.4498 12.4661C12.3599 12.5684 12.2701 12.5813 12.116 12.5045C11.9619 12.4278 11.4654 12.2658 10.8769 11.7434C10.4189 11.3368 10.1097 10.8346 10.0197 10.6812C9.92997 10.5276 10.019 10.4526 10.0873 10.3683C10.2541 10.1621 10.4212 9.94601 10.4725 9.84374C10.5239 9.74139 10.4982 9.65182 10.4596 9.57509C10.4212 9.49837 10.113 8.74361 9.98466 8.43649C9.85949 8.1376 9.73257 8.17797 9.63793 8.17328C9.54816 8.16882 9.44539 8.16792 9.34263 8.16792C9.23994 8.16792 9.07299 8.20624 8.93172 8.35984C8.79052 8.51336 8.39253 8.88428 8.39253 9.63904C8.39253 10.3938 8.94463 11.1229 9.02165 11.2253C9.09867 11.3276 10.1082 12.8765 11.6537 13.5406C12.0213 13.6987 12.3083 13.793 12.5321 13.8637C12.9013 13.9804 13.237 13.9639 13.5026 13.9244C13.7986 13.8804 14.4141 13.5535 14.5426 13.1953C14.671 12.8371 14.671 12.5301 14.6324 12.4661C14.594 12.4021 14.4912 12.3638 14.3372 12.287Z" fill="url(#paint1_linear)"/>
<defs>
<linearGradient id="paint0_linear" x1="8.39189" y1="23" x2="14.6081" y2="0.621621" gradientUnits="userSpaceOnUse">
<stop stop-color="#2AB359"/>
<stop offset="1" stop-color="#97FCC5" stop-opacity="0.87"/>
</linearGradient>
<linearGradient id="paint1_linear" x1="9.82633" y1="17.2501" x2="13.1735" y2="5.2002" gradientUnits="userSpaceOnUse">
<stop stop-color="#2AB359"/>
<stop offset="1" stop-color="#97FCC5" stop-opacity="0.87"/>
</linearGradient>
</defs>
</svg>
