<svg width="27" height="27" viewBox="0 0 27 27" fill="none" xmlns="http://www.w3.org/2000/svg">
<path d="M16.5567 17.929C15.8535 17.4972 14.9355 17.6286 14.3735 18.2414C13.7466 18.925 13.1582 19.2635 12.5748 19.276C12.0245 19.2895 11.4493 18.9962 10.8623 18.4092L9.20566 16.7525C8.61862 16.1655 8.327 15.5893 8.33881 15.04C8.35141 14.4566 8.68986 13.8681 9.37341 13.2413C9.98618 12.6794 10.1175 11.7612 9.68586 11.0581C8.45957 9.06125 6.87812 7.84034 5.76738 7.16782C5.0822 6.75285 4.20707 6.86006 3.63918 7.42812L1.98279 9.08445C1.05561 10.0116 0.595559 11.1062 0.61544 12.3378C0.662479 15.258 3.42244 17.9181 3.61508 18.1001L4.94646 19.4315C5.15244 19.6374 5.48625 19.6374 5.69228 19.4315C5.89821 19.2256 5.89821 18.8917 5.69228 18.6857L4.35526 17.3487C4.35146 17.3449 4.34729 17.3409 4.34329 17.3372C4.31697 17.3124 1.70841 14.8305 1.66992 12.3179C1.65541 11.3708 2.00167 10.557 2.72856 9.83017L4.38495 8.17383C4.6087 7.95003 4.95253 7.90731 5.22105 8.06995C6.04866 8.57113 7.6125 9.69744 8.78705 11.6101C8.95501 11.8836 8.9018 12.2427 8.66054 12.464C7.76627 13.2842 7.30327 14.1432 7.28433 15.0173C7.26598 15.8652 7.66149 16.7 8.45978 17.4983L10.1164 19.155C10.9147 19.9533 11.7479 20.3499 12.5975 20.3305C13.4716 20.3116 14.3306 19.8485 15.1508 18.9542C15.372 18.713 15.7311 18.6597 16.0047 18.8278C17.9173 20.0022 19.0436 21.5661 19.5449 22.3937C19.7074 22.6622 19.6647 23.0061 19.4409 23.2299L17.7845 24.8862C17.0576 25.613 16.2432 25.9571 15.2968 25.9448C12.7842 25.9063 10.3024 23.2978 10.2779 23.2717C10.274 23.2676 10.2701 23.2636 10.266 23.2596L8.96893 21.9625C8.76295 21.7566 8.42914 21.7566 8.22311 21.9625C8.01718 22.1684 8.01718 22.5023 8.22311 22.7083L9.51458 23.9997C9.69662 24.1923 12.3567 26.9522 15.2769 26.9994C15.3024 26.9998 15.3278 27 15.3532 27C16.5537 27 17.6223 26.54 18.5303 25.6321L20.1866 23.9757C20.7546 23.4076 20.8617 22.5325 20.4469 21.8475C19.7744 20.7367 18.5535 19.1552 16.5567 17.929Z" fill="#F3CD82"/>
<path d="M19.3833 0C15.5225 0 12.3815 3.14102 12.3815 7.00175C12.3815 8.54107 12.8681 9.99353 13.7905 11.2144V14.3625C13.7905 14.7248 14.165 14.9844 14.5048 14.8556L17.4594 13.7356C18.0831 13.9135 18.7293 14.0036 19.3833 14.0036C23.2441 14.0036 26.3851 10.8626 26.3851 7.00181C26.3851 3.14102 23.2441 0 19.3833 0ZM19.3833 12.9489C18.7743 12.9489 18.1736 12.8572 17.5978 12.6761C17.4848 12.6407 17.3633 12.6441 17.2527 12.686L14.8452 13.5986V11.0539C14.8499 10.9287 14.8098 10.8049 14.7306 10.7057C13.8838 9.64348 13.4362 8.36272 13.4362 7.00181C13.4362 3.72257 16.1041 1.05469 19.3833 1.05469C22.6626 1.05469 25.3304 3.72257 25.3304 7.00175C25.3305 10.281 22.6626 12.9489 19.3833 12.9489Z" fill="#F3CD82"/>
<path d="M19.4529 3.23067C19.1617 3.23067 18.9256 3.46681 18.9256 3.75801L18.9255 7.74895C18.9255 8.04015 19.1616 8.27629 19.4529 8.27629C19.7441 8.27629 19.9802 8.04015 19.9802 7.74895L19.9803 3.75801C19.9803 3.46676 19.7442 3.23067 19.4529 3.23067Z" fill="#F3F3F3"/>
<path d="M19.9399 9.96891C19.8294 9.7035 19.5168 9.57388 19.2511 9.68362C18.9854 9.79336 18.8563 10.107 18.9658 10.3723C19.0754 10.6378 19.3892 10.7679 19.6546 10.6576C19.9205 10.5471 20.049 10.235 19.9399 9.96891Z" fill="white"/>
<path d="M7.42918 20.4799C7.31865 20.2147 7.00641 20.0843 6.74042 20.1946C6.47527 20.3045 6.34486 20.6179 6.45518 20.8833C6.56539 21.1486 6.87832 21.2789 7.14389 21.1686C7.40888 21.0586 7.53966 20.7453 7.42918 20.4799Z" fill="#F3CD82"/>
</svg>
