<svg width="16" height="16" viewBox="0 0 16 16" fill="none" xmlns="http://www.w3.org/2000/svg">
<g clip-path="url(#clip0)">
<path d="M15.8045 14.8626L11.2545 10.3126C12.1359 9.22399 12.6665 7.84066 12.6665 6.33401C12.6665 2.84205 9.82522 0.000732422 6.33325 0.000732422C2.84128 0.000732422 0 2.84202 0 6.33398C0 9.82595 2.84132 12.6673 6.33328 12.6673C7.83992 12.6673 9.22325 12.1366 10.3119 11.2553L14.8619 15.8052C14.9919 15.9352 15.1625 16.0006 15.3332 16.0006C15.5039 16.0006 15.6745 15.9352 15.8045 15.8052C16.0652 15.5446 16.0652 15.1232 15.8045 14.8626ZM6.33328 11.3339C3.57597 11.3339 1.33333 9.0913 1.33333 6.33398C1.33333 3.57667 3.57597 1.33403 6.33328 1.33403C9.0906 1.33403 11.3332 3.57667 11.3332 6.33398C11.3332 9.0913 9.09057 11.3339 6.33328 11.3339Z" fill="white"/>
</g>
<defs>
<clipPath id="clip0">
<rect width="16" height="16" fill="white"/>
</clipPath>
</defs>
</svg>
