<svg width="22" height="22" viewBox="0 0 22 22" fill="none" xmlns="http://www.w3.org/2000/svg">
<path d="M10.9847 0C6.5388 0 2.92188 3.61693 2.92188 8.06285C2.92188 10.1052 4.20876 12.9908 6.74693 16.6396C8.60214 19.3069 10.4268 21.3709 10.5037 21.4575L10.9847 22L11.4659 21.4575C11.5426 21.3709 13.3673 19.3069 15.2227 16.6396C17.7607 12.9908 19.0477 10.1052 19.0477 8.06285C19.0477 3.61693 15.4306 0 10.9847 0ZM14.1738 15.8947C12.9198 17.6988 11.6524 19.2513 10.9847 20.0434C10.3187 19.2535 9.056 17.7068 7.80286 15.9052C5.45116 12.5244 4.20808 9.81248 4.20808 8.06285C4.20808 4.32625 7.24812 1.28621 10.9847 1.28621C14.7215 1.28621 17.7614 4.32625 17.7614 8.06285C17.7614 9.81064 16.5208 12.5188 14.1738 15.8947Z" fill="url(#paint0_linear)"/>
<path d="M10.9848 2.97998C8.36081 2.97998 6.22614 5.11465 6.22614 7.7386C6.22614 10.3625 8.36081 12.4974 10.9848 12.4974C13.6089 12.4974 15.7435 10.3625 15.7435 7.7386C15.7435 5.11465 13.6089 2.97998 10.9848 2.97998ZM10.9848 11.2112C9.07013 11.2112 7.51234 9.6534 7.51234 7.7386C7.51234 5.82397 9.07013 4.26619 10.9848 4.26619C12.8995 4.26619 14.4573 5.82397 14.4573 7.7386C14.4573 9.6534 12.8995 11.2112 10.9848 11.2112Z" fill="url(#paint1_linear)"/>
<defs>
<linearGradient id="paint0_linear" x1="4.93761" y1="4.125" x2="19.5567" y2="15.3277" gradientUnits="userSpaceOnUse">
<stop stop-color="#28BA97"/>
<stop offset="1" stop-color="#B3EFE1"/>
</linearGradient>
<linearGradient id="paint1_linear" x1="7.41581" y1="4.76449" x2="13.959" y2="11.6051" gradientUnits="userSpaceOnUse">
<stop stop-color="#28BA97"/>
<stop offset="1" stop-color="#B3EFE1"/>
</linearGradient>
</defs>
</svg>
