<svg width="22" height="14" viewBox="0 0 22 14" fill="none" xmlns="http://www.w3.org/2000/svg">
<path d="M21.0224 10.424C20.5439 9.85046 20.0033 9.3384 19.4804 8.84319C19.2966 8.66912 19.1065 8.48912 18.9235 8.31042C18.6773 8.07026 18.5566 7.89968 18.544 7.77378C18.5317 7.65003 18.6162 7.46642 18.8108 7.19503C19.1016 6.78682 19.4116 6.37793 19.7115 5.98253C19.9781 5.63105 20.2537 5.26757 20.5179 4.90204L20.5772 4.81996C21.0926 4.10659 21.6255 3.36895 21.9111 2.47004C21.9926 2.21231 22.0773 1.83092 21.8731 1.4961C21.6687 1.1612 21.2898 1.06195 21.0228 1.01648C20.8924 0.99414 20.7687 0.992293 20.6535 0.992293L17.3103 0.989328C16.7323 0.979703 16.3313 1.25367 16.1127 1.80385C15.9379 2.24325 15.7313 2.75247 15.492 3.23553C15.0342 4.16808 14.4524 5.24218 13.6092 6.13709L13.5717 6.17697C13.5143 6.23824 13.4205 6.33844 13.3724 6.36143C13.281 6.30402 13.1756 5.9757 13.1804 5.80369C13.1805 5.79944 13.1806 5.79523 13.1806 5.79102L13.1776 1.92798C13.1776 1.90835 13.1762 1.88871 13.1736 1.86925C13.0986 1.31813 12.9525 0.765632 12.0802 0.593498C12.0522 0.587955 12.0238 0.585205 11.9953 0.585205H8.51764C7.86336 0.585205 7.61078 0.913371 7.33333 1.23822C7.25303 1.33292 7.13869 1.59149 7.2474 1.89889C7.3574 2.20995 7.49262 2.23637 7.60022 2.25674C7.85714 2.28584 8.17518 2.54287 8.23586 2.95236C8.35578 3.74802 8.37048 4.59919 8.28218 5.62971C8.25755 5.90639 8.21175 6.11668 8.13784 6.29156C8.11739 6.33999 8.09943 6.36998 8.08688 6.38764C8.06686 6.37956 8.03571 6.3641 7.99257 6.33458C7.72624 6.15234 7.52554 5.86905 7.33145 5.59517C6.5562 4.50062 5.90411 3.29173 5.33765 1.89889C5.10437 1.32814 4.66583 1.00935 4.10362 1.0011C3.0325 0.983269 2.04185 0.983699 1.07608 1.00248C0.620569 1.01038 0.301138 1.15377 0.126513 1.42873C-0.0483278 1.7042 -0.0419254 2.05543 0.145591 2.47283C1.48605 5.45358 2.70318 7.62197 4.09194 9.50375C5.06978 10.8286 6.05411 11.7482 7.18965 12.3979C8.38272 13.0804 9.72825 13.415 11.2892 13.4149C11.4667 13.4149 11.6473 13.4106 11.8303 13.4018C12.7934 13.358 13.1852 12.9749 13.228 12.0369C13.252 11.5412 13.3071 11.1396 13.4986 10.7907C13.5521 10.693 13.6125 10.6276 13.6601 10.6156C13.7107 10.6029 13.8005 10.6339 13.9003 10.6988C14.0828 10.8173 14.2399 10.978 14.3691 11.119C14.5001 11.2624 14.6325 11.4105 14.7605 11.5538C15.0331 11.8587 15.3149 12.1741 15.6102 12.4748C16.2781 13.1556 17.048 13.4678 17.8995 13.4024L20.9591 13.4039C20.9688 13.4039 20.9787 13.4036 20.9884 13.4029C21.3413 13.3794 21.6464 13.184 21.8256 12.8668C22.0414 12.4847 22.0381 12.0007 21.8167 11.5717C21.5857 11.1256 21.286 10.7417 21.0224 10.424ZM21.0624 12.4358C21.0203 12.5105 20.9682 12.5242 20.9414 12.5274L17.8824 12.526C17.8703 12.526 17.858 12.5265 17.846 12.5275C17.2433 12.5777 16.7311 12.3659 16.2358 11.861C15.9548 11.5747 15.6799 11.2672 15.414 10.9698C15.2845 10.8248 15.1505 10.6749 15.016 10.5276C14.8491 10.3453 14.6428 10.1359 14.3777 9.96373C13.9808 9.70613 13.652 9.71391 13.446 9.76582C13.2422 9.81716 12.9525 9.96369 12.7301 10.3695C12.4421 10.8945 12.3785 11.4609 12.3527 11.996C12.3377 12.3233 12.2824 12.4097 12.2592 12.4317C12.229 12.4605 12.1277 12.5111 11.7899 12.5265C10.1667 12.6028 8.80455 12.3122 7.62492 11.6372C6.59874 11.0501 5.70018 10.2068 4.79719 8.9834C3.44689 7.15382 2.2588 5.03511 0.945027 2.11365C0.897417 2.00782 0.882722 1.94178 0.878468 1.90641C0.911983 1.89541 0.977468 1.88093 1.09228 1.87883C2.04825 1.86031 3.02854 1.85979 4.09 1.8775C4.23532 1.87964 4.4008 1.92326 4.52609 2.22984C5.11795 3.68515 5.80163 4.95166 6.61632 6.10186C6.83262 6.40715 7.10186 6.78717 7.49756 7.05791C7.86001 7.3061 8.15413 7.29424 8.33709 7.24062C8.52014 7.18695 8.77417 7.03785 8.94527 6.63274C9.05566 6.37162 9.12239 6.07758 9.15543 5.70607C9.24983 4.60379 9.23308 3.68735 9.1028 2.82294C9.01097 2.20363 8.88468 1.69024 8.38095 1.46177C8.47041 1.41519 8.37774 1.46177 8.51773 1.46177H11.95C12.1431 1.50508 12.1813 1.55596 12.1944 1.57336C12.25 1.64731 12.2818 1.82224 12.3012 1.95892L12.3041 5.78634C12.2964 6.15325 12.4747 6.96699 13.0819 7.19013C13.0869 7.19198 13.0919 7.1937 13.0969 7.19533C13.6497 7.37597 14.0153 6.98577 14.2116 6.77612L14.2466 6.73891C15.1702 5.75858 15.7922 4.61311 16.2781 3.62332C16.5314 3.11221 16.7459 2.58352 16.9273 2.12779C17.018 1.89924 17.1006 1.8616 17.2976 1.86576C17.3004 1.86585 17.303 1.86585 17.3058 1.86585L20.6533 1.86882C20.7311 1.86882 20.8124 1.86972 20.8754 1.8805C21.0349 1.90766 21.1006 1.94075 21.1223 1.95445C21.1245 1.97985 21.124 2.05289 21.0758 2.20535C20.833 2.96972 20.3637 3.61915 19.8669 4.30674L19.8076 4.38894C19.5495 4.7461 19.2769 5.10545 19.0134 5.45303C18.7096 5.85354 18.3956 6.26763 18.0979 6.68555C17.4613 7.57367 17.5173 8.16303 18.3116 8.93785C18.4994 9.12111 18.6918 9.30339 18.8779 9.47964C19.4056 9.9795 19.9041 10.4516 20.3489 10.9847C20.5818 11.2654 20.8458 11.6026 21.0383 11.9742C21.1386 12.1687 21.114 12.3445 21.0624 12.4358Z" fill="#F3F3F3"/>
</svg>
