<svg width="16" height="20" viewBox="0 0 16 20" fill="none" xmlns="http://www.w3.org/2000/svg">
<path d="M5.42053 6.49516V4.10071C5.42053 2.5749 6.65754 1.33789 8.18336 1.33789C9.70917 1.33789 10.9462 2.5749 10.9462 4.10071V6.49516" stroke="#676F77" stroke-miterlimit="10"/>
<path d="M4.68384 6.49525H6.15723" stroke="#676F77" stroke-miterlimit="10"/>
<path d="M10.2095 6.49525H11.6829" stroke="#676F77" stroke-miterlimit="10"/>
<path d="M5.60474 4.65331H9.6569" stroke="#676F77" stroke-miterlimit="10"/>
<path d="M11.1304 4.65331V4.65331C12.8912 4.65331 14.3492 6.0209 14.4619 7.7781L14.9097 14.7641C15.0574 17.0692 13.2277 19.02 10.9179 19.02H5.21038C2.92078 19.02 1.09837 17.1017 1.21563 14.8151L1.61412 7.04462C1.68284 5.70458 2.7894 4.65331 4.1312 4.65331V4.65331" stroke="#676F77" stroke-miterlimit="10"/>
<path d="M2.8418 16.8097H13.3405" stroke="#676F77" stroke-miterlimit="10"/>
</svg>
