<svg width="20" height="20" viewBox="0 0 20 20" fill="none" xmlns="http://www.w3.org/2000/svg">
<path fill-rule="evenodd" clip-rule="evenodd" d="M7.30391 11.6667H13.6522L16.1522 6.66667H5.93974L7.30391 11.6667ZM16.1515 5C16.7332 5 17.2632 5.295 17.569 5.79C17.8748 6.285 17.9032 6.89083 17.6423 7.41167L14.9123 12.8725C14.7707 13.155 14.4823 13.3333 14.1665 13.3333H6.6665C6.29067 13.3333 5.9615 13.0817 5.86234 12.7192L3.52984 4.16667H2.49984C2.039 4.16667 1.6665 3.79333 1.6665 3.33333C1.6665 2.87333 2.039 2.5 2.49984 2.5H4.1665C4.54234 2.5 4.8715 2.75167 4.97067 3.11417L5.48484 5H16.1515ZM6.25004 15C5.56004 15 5.00004 15.5592 5.00004 16.25C5.00004 16.9408 5.56004 17.5 6.25004 17.5C6.94004 17.5 7.50004 16.9408 7.50004 16.25C7.50004 15.5592 6.94004 15 6.25004 15ZM14.5834 15C13.8934 15 13.3334 15.5592 13.3334 16.25C13.3334 16.9408 13.8934 17.5 14.5834 17.5C15.2734 17.5 15.8334 16.9408 15.8334 16.25C15.8334 15.5592 15.2734 15 14.5834 15Z" fill="white"/>
<mask id="mask0" mask-type="alpha" maskUnits="userSpaceOnUse" x="1" y="2" width="17" height="16">
<path fill-rule="evenodd" clip-rule="evenodd" d="M7.30391 11.6667H13.6522L16.1522 6.66667H5.93974L7.30391 11.6667ZM16.1515 5C16.7332 5 17.2632 5.295 17.569 5.79C17.8748 6.285 17.9032 6.89083 17.6423 7.41167L14.9123 12.8725C14.7707 13.155 14.4823 13.3333 14.1665 13.3333H6.6665C6.29067 13.3333 5.9615 13.0817 5.86234 12.7192L3.52984 4.16667H2.49984C2.039 4.16667 1.6665 3.79333 1.6665 3.33333C1.6665 2.87333 2.039 2.5 2.49984 2.5H4.1665C4.54234 2.5 4.8715 2.75167 4.97067 3.11417L5.48484 5H16.1515ZM6.25004 15C5.56004 15 5.00004 15.5592 5.00004 16.25C5.00004 16.9408 5.56004 17.5 6.25004 17.5C6.94004 17.5 7.50004 16.9408 7.50004 16.25C7.50004 15.5592 6.94004 15 6.25004 15ZM14.5834 15C13.8934 15 13.3334 15.5592 13.3334 16.25C13.3334 16.9408 13.8934 17.5 14.5834 17.5C15.2734 17.5 15.8334 16.9408 15.8334 16.25C15.8334 15.5592 15.2734 15 14.5834 15Z" fill="white"/>
</mask>
<g mask="url(#mask0)">
<rect width="20" height="20" fill="white"/>
</g>
</svg>
