<svg width="29" height="29" viewBox="0 0 29 29" fill="none" xmlns="http://www.w3.org/2000/svg">
<path d="M10.875 25.375C12.2097 25.375 13.2916 24.293 13.2916 22.9583C13.2916 21.6236 12.2097 20.5417 10.875 20.5417C9.54029 20.5417 8.45831 21.6236 8.45831 22.9583C8.45831 24.293 9.54029 25.375 10.875 25.375Z" stroke="white" stroke-width="2" stroke-linecap="round" stroke-linejoin="round"/>
<path d="M20.5417 25.375C21.8764 25.375 22.9583 24.293 22.9583 22.9583C22.9583 21.6236 21.8764 20.5417 20.5417 20.5417C19.207 20.5417 18.125 21.6236 18.125 22.9583C18.125 24.293 19.207 25.375 20.5417 25.375Z" stroke="white" stroke-width="2" stroke-linecap="round" stroke-linejoin="round"/>
<path d="M3.625 3.625H6.04167L8.45833 18.125C8.719 18.8663 9.21347 19.5028 9.86728 19.9387C10.5211 20.3745 11.2988 20.5862 12.0833 20.5417H20.5417C21.3262 20.5862 22.1039 20.3745 22.7577 19.9387C23.4115 19.5028 23.906 18.8663 24.1667 18.125L25.375 9.66667H7.00833" stroke="white" stroke-width="2" stroke-linecap="round" stroke-linejoin="round"/>
</svg>
