<svg width="60" height="60" viewBox="0 0 60 60" fill="none" xmlns="http://www.w3.org/2000/svg">
<path d="M20.7983 38.767C20.5805 38.549 20.2781 38.4248 19.9699 38.4248C19.6616 38.4248 19.3594 38.5491 19.1414 38.767C18.9234 38.9861 18.798 39.2885 18.798 39.5955C18.798 39.9049 18.9233 40.2061 19.1414 40.424C19.3594 40.6431 19.6616 40.7674 19.9699 40.7674C20.2781 40.7674 20.5805 40.6431 20.7983 40.424C21.0163 40.2061 21.1418 39.9048 21.1418 39.5955C21.1418 39.2885 21.0164 38.9861 20.7983 38.767Z" fill="#A7A7A7"/>
<path d="M60 39.8325C60 37.4659 58.337 35.4816 56.1185 34.9833C56.6437 34.1953 56.9507 33.2499 56.9507 32.234C56.9507 29.493 54.7207 27.263 51.9797 27.263H38.9391L40.645 22.1985C41.3334 20.1546 41.1689 17.973 40.1818 16.0554C39.1948 14.138 37.5148 12.7364 35.4516 12.1091L33.3955 11.4842C32.798 11.3024 32.1647 11.6205 31.9526 12.2066L28.7218 21.1356C27.8048 23.6698 25.9965 25.7751 23.6299 27.0637L20.4025 28.8212C19.7082 27.8772 18.5905 27.2631 17.3316 27.2631H1.17188C0.524766 27.2631 0 27.7879 0 28.435V58.8278C0 59.4749 0.524766 59.9997 1.17188 59.9997H17.3316C18.7335 59.9997 19.9601 59.2381 20.6217 58.1074L22.2758 58.7562C24.3803 59.5814 26.5934 59.9998 28.8536 59.9998H49.3303C52.0713 59.9998 54.3013 57.7698 54.3013 55.0288C54.3013 54.0047 53.9898 53.0522 53.457 52.2604C55.6334 51.7315 57.2545 49.7673 57.2545 47.4306C57.2545 46.3864 56.9302 45.4167 56.3779 44.6159C58.4652 44.0264 60 42.106 60 39.8325ZM55.029 42.4596H52.2836H46.9016H42.9757C42.3286 42.4596 41.8038 42.9844 41.8038 43.6315C41.8038 44.2786 42.3286 44.8034 42.9757 44.8034H46.9016H52.2836C53.7322 44.8034 54.9108 45.9819 54.9108 47.4306C54.9108 48.8793 53.7322 50.0578 52.2836 50.0578H49.3303H43.375H42.9758C42.3287 50.0578 41.8039 50.5826 41.8039 51.2297C41.8039 51.8768 42.3287 52.4016 42.9758 52.4016H43.375H49.3303C50.779 52.4016 51.9575 53.5801 51.9575 55.0288C51.9575 56.4775 50.779 57.656 49.3303 57.656H28.8536C26.8874 57.656 24.9622 57.2921 23.1315 56.5742L21.1418 55.7938V44.2967C21.1418 43.6496 20.617 43.1248 19.9699 43.1248C19.3228 43.1248 18.798 43.6496 18.798 44.2967V56.1893C18.798 56.9979 18.1403 57.6558 17.3316 57.6558H2.34375V29.6067H17.3316C18.1402 29.6067 18.798 30.2645 18.798 31.0732V35.0523C18.798 35.6994 19.3228 36.2242 19.9699 36.2242C20.617 36.2242 21.1418 35.6994 21.1418 35.0523V31.0873L24.7508 29.1219C27.6209 27.5592 29.8138 25.0062 30.9258 21.933L33.7781 14.05L34.7698 14.3514C36.2216 14.7928 37.4036 15.7789 38.098 17.128C38.7926 18.4772 38.9082 20.0121 38.4239 21.4501L36.1973 28.0606C36.0769 28.4182 36.1361 28.8119 36.356 29.1183C36.5762 29.4248 36.9305 29.6065 37.3078 29.6065H51.9797C53.4284 29.6065 54.6069 30.7851 54.6069 32.2337C54.6069 33.6824 53.4284 34.861 51.9797 34.861H42.9757C42.3286 34.861 41.8038 35.3857 41.8038 36.0328C41.8038 36.6799 42.3286 37.2047 42.9757 37.2047H46.8948C46.8971 37.2047 46.8994 37.2051 46.9016 37.2051H55.029C56.4777 37.2051 57.6562 38.3836 57.6562 39.8323C57.6562 41.2812 56.4777 42.4596 55.029 42.4596Z" fill="#A7A7A7"/>
<path d="M12.7937 48.6948C10.9837 48.6948 9.51117 50.1673 9.51117 51.9772C9.51117 53.7872 10.9836 55.2598 12.7937 55.2598C14.6038 55.2598 16.0762 53.7873 16.0762 51.9772C16.0762 50.1674 14.6037 48.6948 12.7937 48.6948ZM12.7937 52.916C12.2761 52.916 11.8549 52.4949 11.8549 51.9772C11.8549 51.4596 12.2761 51.0386 12.7937 51.0386C13.3113 51.0386 13.7325 51.4596 13.7325 51.9772C13.7325 52.4949 13.3113 52.916 12.7937 52.916Z" fill="#232FE5"/>
<path d="M35.8463 0.343359C35.6283 0.125391 35.3261 0 35.0178 0C34.7096 0 34.4073 0.125273 34.1894 0.343359C33.9715 0.561328 33.8459 0.863672 33.8459 1.17188C33.8459 1.48008 33.9713 1.78242 34.1894 2.00027C34.4073 2.21836 34.7096 2.34375 35.0178 2.34375C35.3261 2.34375 35.6284 2.21836 35.8463 2.00027C36.0643 1.78242 36.1897 1.48008 36.1897 1.17188C36.1897 0.863672 36.0644 0.561328 35.8463 0.343359Z" fill="#232FE5"/>
<path d="M35.018 4.375C34.3708 4.375 33.8461 4.89977 33.8461 5.54687V8.39851C33.8461 9.04562 34.3708 9.57039 35.018 9.57039C35.6651 9.57039 36.1898 9.04562 36.1898 8.39851V5.54687C36.1898 4.89977 35.6652 4.375 35.018 4.375Z" fill="#232FE5"/>
<path d="M50.3975 15.3828H43.171C42.5238 15.3828 41.9991 15.9075 41.9991 16.5547C41.9991 17.2018 42.5239 17.7266 43.171 17.7266H50.3975C51.0446 17.7266 51.5694 17.2018 51.5694 16.5547C51.5694 15.9076 51.0446 15.3828 50.3975 15.3828Z" fill="#232FE5"/>
<path d="M26.8619 15.3794H19.6353C18.9881 15.3794 18.4634 15.9042 18.4634 16.5513C18.4634 17.1984 18.988 17.7231 19.6353 17.7231H26.8619C27.509 17.7231 28.0337 17.1984 28.0337 16.5513C28.0337 15.9042 27.509 15.3794 26.8619 15.3794Z" fill="#232FE5"/>
<path d="M29.2206 9.09781L25.8086 5.6859C25.3509 5.2284 24.6091 5.2284 24.1513 5.6859C23.6936 6.14352 23.6936 6.88555 24.1513 7.34328L27.5633 10.7552C27.7922 10.9839 28.092 11.0984 28.3919 11.0984C28.6918 11.0984 28.9917 10.9839 29.2206 10.7552C29.6782 10.2976 29.6782 9.55555 29.2206 9.09781Z" fill="#A7A7A7"/>
<path d="M45.8837 5.68785C45.4259 5.23035 44.6841 5.23035 44.2263 5.68785L40.8143 9.09977C40.3567 9.55739 40.3567 10.2994 40.8143 10.7572C41.0432 10.9859 41.3431 11.1004 41.6431 11.1004C41.9431 11.1004 42.2429 10.9859 42.4717 10.7572L45.8837 7.34524C46.3413 6.88762 46.3413 6.14559 45.8837 5.68785Z" fill="#A7A7A7"/>
</svg>
