<svg width="22" height="8" viewBox="0 0 22 8" fill="none" xmlns="http://www.w3.org/2000/svg">
<path d="M9.03977 0.770508L8.00393 7.21639H9.65958L10.6948 0.770508H9.03977ZM14.0338 3.3962C13.4552 3.11049 13.1005 2.91765 13.1005 2.62543C13.1076 2.35973 13.4005 2.08753 14.0545 2.08753C14.5924 2.07402 14.9877 2.20043 15.2877 2.3262L15.4379 2.39326L15.663 1.04462C15.336 0.918211 14.8175 0.778925 14.177 0.778925C12.542 0.778925 11.3907 1.629 11.3836 2.84479C11.3701 3.74197 12.2078 4.23984 12.8348 4.5385C13.4752 4.84487 13.6933 5.0435 13.6933 5.31571C13.6862 5.73363 13.1754 5.92647 12.6987 5.92647C12.0383 5.92647 11.6836 5.82715 11.145 5.59428L10.927 5.49496L10.6955 6.89651C11.0844 7.0694 11.7997 7.22156 12.5421 7.22934C14.2796 7.22934 15.4102 6.39214 15.4245 5.09641C15.4301 4.38563 14.9884 3.84122 14.0338 3.3962ZM19.9076 0.790456H18.6266C18.2319 0.790456 17.932 0.903992 17.761 1.30904L15.3017 7.21639H17.0393L17.5178 5.93743H19.4618L19.7101 7.22156H21.2426L19.9076 0.790456ZM17.9997 4.64673C18.0333 4.64998 18.6666 2.55893 18.6666 2.55893L19.171 4.64673C19.171 4.64673 18.3267 4.64673 17.9997 4.64673ZM6.62049 0.770508L4.99837 5.14989L4.82167 4.28624C4.52173 3.28974 3.5814 2.20686 2.53198 1.66896L4.01736 7.20996H5.76914L8.37227 0.771215H6.62049V0.770508Z" fill="#2394BC"/>
<path d="M4.27601 1.60154C4.1496 1.11004 3.74645 0.778558 3.19893 0.771484H0.629972L0.603516 0.89075C2.60748 1.38479 4.28952 2.90497 4.8352 4.33489L4.27601 1.60154Z" fill="#EFC75E"/>
</svg>
