<svg width="18" height="10" viewBox="0 0 18 10" fill="none" xmlns="http://www.w3.org/2000/svg">
<path d="M9.24143 8.70359C10.2467 7.80413 10.8816 6.4814 10.8816 4.99993C10.8816 3.51847 10.2467 2.22219 9.24143 1.29628C8.36842 0.502639 7.17796 0 5.90814 0C3.15685 0 0.908203 2.24865 0.908203 4.99993C0.908203 7.75122 3.15685 9.97341 5.90814 9.97341C7.17796 9.99987 8.36842 9.49723 9.24143 8.70359Z" fill="#07A9E2"/>
<path d="M0.908203 4.99993C0.908203 7.75122 3.15685 9.97341 5.90814 9.97341C7.20442 9.97341 8.36842 9.49723 9.24143 8.67713C10.2467 7.77768 10.8816 6.45494 10.8816 4.97348C10.8816 3.49202 10.2467 2.22219 9.24143 1.29628C8.36842 0.502639 7.17796 0 5.90814 0" fill="#009DDD"/>
<path d="M9.24137 1.29628C8.36836 0.502639 7.1779 0 5.90808 0C5.82871 0 5.74935 0 5.66999 0C4.10916 1.13755 3.10388 2.96292 3.10388 4.99993C3.10388 7.03694 4.10916 8.86232 5.64353 9.97341C5.72289 9.97341 5.80226 9.97341 5.88162 9.97341C7.1779 9.97341 8.34191 9.49723 9.21491 8.67713C10.2202 7.77768 10.8551 6.45494 10.8551 4.97348C10.8551 3.49202 10.2466 2.22219 9.24137 1.29628Z" fill="#0284CC"/>
<path d="M12.6013 0C11.305 0 10.141 0.476184 9.24152 1.29628C9.05634 1.45501 8.89761 1.64019 8.73889 1.82537H9.74416C9.87644 1.9841 10.0087 2.16928 10.1145 2.35447H8.34207C8.23625 2.53965 8.13043 2.69838 8.05106 2.88356H10.4055C10.4849 3.06874 10.5643 3.22747 10.6172 3.41265H7.86588C7.81297 3.59784 7.76006 3.75656 7.70715 3.94175H10.7759C10.8553 4.28566 10.8817 4.62957 10.8817 4.99993C10.8817 5.55548 10.8024 6.08457 10.6172 6.58721H7.86588C7.91879 6.7724 7.99815 6.93112 8.07752 7.11631H10.432C10.3526 7.30149 10.2468 7.48667 10.141 7.6454H8.36852C8.47434 7.83058 8.60661 8.01577 8.73889 8.17449H9.74416C9.58544 8.35968 9.42671 8.54486 9.24152 8.70359C10.141 9.49723 11.305 9.99987 12.6013 9.99987C15.3526 9.99987 17.5747 7.77767 17.5747 5.02639C17.5747 2.24865 15.3526 0 12.6013 0Z" fill="#FF2957"/>
<path d="M12.6013 0C11.305 0 10.141 0.476184 9.24152 1.29628C9.05634 1.45501 8.89761 1.64019 8.73889 1.82537H9.74416C9.87644 1.9841 10.0087 2.16928 10.1145 2.35447H8.34207C8.23625 2.53965 8.13043 2.69838 8.05106 2.88356H10.4055C10.4849 3.06874 10.5643 3.22747 10.6172 3.41265H7.86588C7.81297 3.59784 7.76006 3.75656 7.70715 3.94175H10.7759C10.8553 4.28566 10.8817 4.62957 10.8817 4.99993C10.8817 5.55548 10.8024 6.08457 10.6172 6.58721H7.86588C7.91879 6.7724 7.99815 6.93112 8.07752 7.11631H10.432C10.3526 7.30149 10.2468 7.48667 10.141 7.6454H8.36852C8.47434 7.83058 8.60661 8.01577 8.73889 8.17449H9.74416C9.58544 8.35968 9.42671 8.54486 9.24152 8.70359C10.141 9.49723 11.305 9.99987 12.6013 9.99987C15.3526 9.99987 17.5747 7.77767 17.5747 5.02639" fill="#ED1C2E"/>
<path d="M15.8551 6.08451C15.8551 6.00514 15.9345 5.92578 16.0138 5.92578C16.0932 5.92578 16.1726 6.00514 16.1726 6.08451C16.1726 6.16387 16.0932 6.24324 16.0138 6.24324C15.9345 6.24324 15.8551 6.16387 15.8551 6.08451ZM16.0138 6.21678C16.0932 6.21678 16.1196 6.16387 16.1196 6.08451C16.1196 6.00514 16.0667 5.97869 16.0138 5.97869C15.9345 5.97869 15.8816 6.0316 15.8816 6.08451C15.8816 6.13742 15.9609 6.21678 16.0138 6.21678ZM16.0138 6.13742H15.9874V6.00514H16.0403C16.0667 6.00514 16.0667 6.00514 16.0667 6.00514L16.0932 6.0316C16.0932 6.05805 16.0932 6.05805 16.0667 6.05805L16.0932 6.11096H16.0667L16.0403 6.05805H16.0138V6.13742ZM16.0138 6.05805C16.0403 6.05805 16.0403 6.05805 16.0403 6.05805C16.0403 6.05805 16.0403 6.05805 16.0403 6.0316H16.0138V6.05805Z" fill="white"/>
<path d="M5.2732 6.24376H4.63829L5.00865 4.31256L4.16211 6.24376H3.60656L3.50074 4.31256L3.13038 6.24376H2.57483L3.05101 3.7041H4.02983L4.08274 5.29139L4.77056 3.7041H5.77584L5.2732 6.24376Z" fill="white"/>
<path d="M9.24146 8.7037C10.2467 7.80424 10.8816 6.4815 10.8816 5.00004C10.8816 3.51858 10.2467 2.2223 9.24146 1.29639V8.7037Z" fill="#0466B5"/>
<path d="M9.24152 1.29649C9.05634 1.45522 8.89761 1.64041 8.73889 1.82559H9.74416C9.87644 1.98432 10.0087 2.1695 10.1145 2.35468H8.34207C8.23625 2.53986 8.13043 2.69859 8.05106 2.88377H10.4055C10.4849 3.06896 10.5643 3.22769 10.6172 3.41287H7.86588C7.81297 3.59805 7.76006 3.75678 7.70715 3.94196H10.7759C10.8553 4.28587 10.8817 4.62978 10.8817 5.00015C10.8817 5.5557 10.8024 6.08479 10.6172 6.58743H7.86588C7.91879 6.77261 7.99815 6.93134 8.07752 7.11652H10.432C10.3526 7.30171 10.2468 7.48689 10.141 7.64562H8.36852C8.47434 7.8308 8.60661 8.01598 8.73889 8.17471H9.74416C9.58544 8.35989 9.42671 8.54507 9.24152 8.7038C10.141 9.49744 11.305 10.0001 12.6013 10.0001C12.6806 10.0001 12.76 10.0001 12.8394 10.0001C14.3737 8.88899 15.379 7.06361 15.379 5.0266C15.379 2.98959 14.3737 1.16422 12.8394 0.0531247C12.76 0.0531247 12.6806 0.0531247 12.6013 0.0531247C11.305 0.000215359 10.141 0.502854 9.24152 1.29649Z" fill="#D1094B"/>
<path d="M12.2044 6.21672C12.0192 6.26963 11.9134 6.29608 11.7546 6.29608C11.4372 6.29608 11.2784 6.13736 11.2784 5.84635C11.2784 5.79344 11.2784 5.74054 11.3049 5.66117L11.3314 5.44953L11.3578 5.29081L11.6488 3.72998H12.2573L12.1779 4.20616H12.4954L12.416 4.68235H12.0985L11.9398 5.5289C11.9398 5.55535 11.9134 5.60826 11.9134 5.60826C11.9134 5.71408 11.9927 5.76699 12.125 5.76699C12.2044 5.76699 12.2573 5.76699 12.2837 5.74054L12.2044 6.21672Z" fill="#DCE5E5"/>
<path d="M14.0298 4.20623C13.9768 4.17978 13.9768 4.17978 13.9504 4.17978C13.9239 4.17978 13.8975 4.17977 13.8975 4.15332C13.871 4.15332 13.871 4.15332 13.8181 4.15332C13.6065 4.15332 13.4742 4.23268 13.289 4.49723L13.3419 4.17978H12.7864L12.416 6.24324H13.0509C13.2626 4.97342 13.3684 4.76178 13.6594 4.76178C13.6858 4.76178 13.7123 4.76178 13.7387 4.76178L13.8181 4.78823L14.0298 4.20623Z" fill="#DCE5E5"/>
<path d="M9.74407 4.84114C9.74407 5.10569 9.9028 5.29087 10.2203 5.39669C10.4848 5.50251 10.5113 5.52896 10.5113 5.63478C10.5113 5.76706 10.4054 5.81996 10.1409 5.81996C9.95571 5.81996 9.77053 5.79351 9.58535 5.7406L9.50598 6.21678H9.53244L9.63825 6.24324C9.66471 6.24324 9.74407 6.24324 9.79698 6.24324C9.95571 6.26969 10.0615 6.26969 10.1409 6.26969C10.8023 6.26969 11.1197 6.05806 11.1197 5.58187C11.1197 5.29087 10.9874 5.13214 10.67 4.99987C10.4054 4.89405 10.379 4.8676 10.379 4.78823C10.379 4.68241 10.4848 4.6295 10.6964 4.6295C10.8023 4.6295 10.9874 4.6295 11.1462 4.65596L11.2255 4.17978C11.0668 4.15332 10.8287 4.15332 10.67 4.15332C9.98217 4.15332 9.74407 4.47078 9.74407 4.84114Z" fill="#DCE5E5"/>
<path d="M9.32077 6.19042C9.10914 6.24333 8.8975 6.26978 8.68587 6.26978C7.99805 6.26978 7.62769 5.95233 7.62769 5.34387C7.62769 4.62959 8.07741 4.12695 8.71232 4.12695C9.21496 4.12695 9.53241 4.41795 9.53241 4.86768C9.53241 5.02641 9.50596 5.15869 9.45305 5.37032H8.20968C8.20968 5.39678 8.20968 5.42323 8.20968 5.44969C8.20968 5.68778 8.39487 5.82005 8.73878 5.82005C8.97687 5.82005 9.16205 5.7936 9.37368 5.68778L9.32077 6.19042ZM9.00332 4.9735C9.00332 4.94705 9.00332 4.89414 9.00332 4.86768C9.00332 4.70896 8.8975 4.60314 8.71232 4.60314C8.52714 4.60314 8.36841 4.73541 8.3155 4.9735H9.00332Z" fill="#DCE5E5"/>
<path d="M4.66476 5.13208L5.03513 4.31198L4.74412 5.84635C4.77058 5.97863 4.79703 6.13736 4.84994 6.26963H5.27322L5.7494 3.72998H4.82349C4.71767 4.1268 4.63831 4.57653 4.63831 5.02626C4.66476 5.05271 4.66476 5.07917 4.66476 5.13208Z" fill="#DCE5E5"/>
<path d="M7.28376 6.24333H6.78112V6.03169C6.6224 6.19042 6.41076 6.26978 6.11976 6.26978C5.77585 6.26978 5.56421 6.03169 5.56421 5.71423C5.56421 5.21159 5.96103 4.92059 6.64885 4.92059C6.72821 4.92059 6.80758 4.92059 6.9134 4.92059C6.93985 4.84123 6.93985 4.81477 6.93985 4.78832C6.93985 4.65605 6.83403 4.60314 6.54303 4.60314C6.35785 4.60314 6.17267 4.62959 6.04039 4.65605L5.96103 4.6825H5.90812L5.98748 4.23277C6.30494 4.15341 6.49012 4.12695 6.72821 4.12695C7.25731 4.12695 7.54831 4.33859 7.54831 4.73541C7.54831 4.84123 7.54831 4.92059 7.4954 5.15868L7.36313 5.89942L7.33667 6.03169L7.31022 6.13751V6.21687L7.28376 6.24333ZM6.83403 5.31741C6.75467 5.31741 6.72821 5.31741 6.70176 5.31741C6.35785 5.31741 6.17267 5.42323 6.17267 5.63487C6.17267 5.76714 6.25203 5.84651 6.3843 5.84651C6.64885 5.84651 6.83403 5.63487 6.83403 5.31741Z" fill="#DCE5E5"/>
<path d="M15.9609 5.31741C15.8551 6.00523 15.3789 6.29624 14.744 6.29624C14.0561 6.29624 13.7651 5.87296 13.7651 5.34387C13.7651 4.62959 14.2413 4.12695 14.9821 4.12695C15.617 4.12695 15.9609 4.55023 15.9609 5.05287C15.9609 5.18514 15.9609 5.18514 15.9609 5.31741ZM15.2995 5.05287C15.2995 4.84123 15.2201 4.65605 14.9556 4.65605C14.6381 4.65605 14.453 5.02641 14.453 5.37032C14.453 5.63487 14.5852 5.82005 14.7969 5.82005C14.9291 5.82005 15.2201 5.63487 15.2731 5.31741C15.2995 5.21159 15.2995 5.13223 15.2995 5.05287Z" fill="white"/>
<path d="M13.7916 5.58169C13.818 5.39651 13.8445 5.18487 13.8445 4.99969C13.8445 4.97323 13.8445 4.94678 13.8445 4.94678C13.818 5.07905 13.7916 5.21132 13.7916 5.37005C13.7651 5.42296 13.7651 5.50233 13.7916 5.58169Z" fill="white"/>
</svg>
