<svg width="14" height="14" viewBox="0 0 14 14" fill="none" xmlns="http://www.w3.org/2000/svg">
<g id="Icon/Outline/pin">
<path id="Mask" fill-rule="evenodd" clip-rule="evenodd" d="M6.99967 6.41621C6.51726 6.41621 6.12467 6.02362 6.12467 5.54121C6.12467 5.05879 6.51726 4.66621 6.99967 4.66621C7.48209 4.66621 7.87467 5.05879 7.87467 5.54121C7.87467 6.02362 7.48209 6.41621 6.99967 6.41621ZM6.99967 3.49954C5.87384 3.49954 4.95801 4.41537 4.95801 5.54121C4.95801 6.66704 5.87384 7.58287 6.99967 7.58287C8.12551 7.58287 9.04134 6.66704 9.04134 5.54121C9.04134 4.41537 8.12551 3.49954 6.99967 3.49954ZM6.99967 11.46C6.02259 10.536 3.49967 7.94192 3.49967 5.78767C3.49967 3.88309 5.06942 2.33317 6.99967 2.33317C8.92992 2.33317 10.4997 3.88309 10.4997 5.78767C10.4997 7.94192 7.97676 10.536 6.99967 11.46ZM6.99967 1.1665C4.42659 1.1665 2.33301 3.23909 2.33301 5.78767C2.33301 8.98142 6.44492 12.5421 6.61992 12.692C6.72959 12.7859 6.86434 12.8332 6.99967 12.8332C7.13501 12.8332 7.26976 12.7859 7.37942 12.692C7.55442 12.5421 11.6663 8.98142 11.6663 5.78767C11.6663 3.23909 9.57276 1.1665 6.99967 1.1665Z" fill="#231F20"/>
<mask id="mask0" mask-type="alpha" maskUnits="userSpaceOnUse" x="2" y="1" width="10" height="12">
<path id="Mask_2" fill-rule="evenodd" clip-rule="evenodd" d="M6.99967 6.41621C6.51726 6.41621 6.12467 6.02362 6.12467 5.54121C6.12467 5.05879 6.51726 4.66621 6.99967 4.66621C7.48209 4.66621 7.87467 5.05879 7.87467 5.54121C7.87467 6.02362 7.48209 6.41621 6.99967 6.41621ZM6.99967 3.49954C5.87384 3.49954 4.95801 4.41537 4.95801 5.54121C4.95801 6.66704 5.87384 7.58287 6.99967 7.58287C8.12551 7.58287 9.04134 6.66704 9.04134 5.54121C9.04134 4.41537 8.12551 3.49954 6.99967 3.49954ZM6.99967 11.46C6.02259 10.536 3.49967 7.94192 3.49967 5.78767C3.49967 3.88309 5.06942 2.33317 6.99967 2.33317C8.92992 2.33317 10.4997 3.88309 10.4997 5.78767C10.4997 7.94192 7.97676 10.536 6.99967 11.46ZM6.99967 1.1665C4.42659 1.1665 2.33301 3.23909 2.33301 5.78767C2.33301 8.98142 6.44492 12.5421 6.61992 12.692C6.72959 12.7859 6.86434 12.8332 6.99967 12.8332C7.13501 12.8332 7.26976 12.7859 7.37942 12.692C7.55442 12.5421 11.6663 8.98142 11.6663 5.78767C11.6663 3.23909 9.57276 1.1665 6.99967 1.1665Z" fill="white"/>
</mask>
<g mask="url(#mask0)">
<g id="&#240;&#159;&#142;&#168; Color">
<rect id="Base" width="14" height="14" fill="#0D1C2E"/>
</g>
</g>
</g>
</svg>
